<?xml version="1.0" encoding="UTF-8" standalone="no"?>
<svg
   version="1.1"
   viewBox="0.00 0.00 1004.00 222.00"
   id="svg238"
   sodipodi:docname="gofit_logo_preto.svg"
   inkscape:version="1.2.1 (9c6d41e, 2022-07-14)"
   xmlns:inkscape="http://www.inkscape.org/namespaces/inkscape"
   xmlns:sodipodi="http://sodipodi.sourceforge.net/DTD/sodipodi-0.dtd"
   xmlns="http://www.w3.org/2000/svg"
   xmlns:svg="http://www.w3.org/2000/svg">
  <defs
     id="defs242" />
  <sodipodi:namedview
     id="namedview240"
     pagecolor="#ffffff"
     bordercolor="#000000"
     borderopacity="0.25"
     inkscape:showpageshadow="2"
     inkscape:pageopacity="0.0"
     inkscape:pagecheckerboard="0"
     inkscape:deskcolor="#d1d1d1"
     showgrid="false"
     inkscape:zoom="1.3102372"
     inkscape:cx="436.94379"
     inkscape:cy="198.43736"
     inkscape:window-width="2056"
     inkscape:window-height="1286"
     inkscape:window-x="0"
     inkscape:window-y="43"
     inkscape:window-maximized="0"
     inkscape:current-layer="svg238"
     showguides="true" />
  <rect
     fill="#333333"
     x="410.39035"
     y="5.4509439"
     width="26.380306"
     height="165.61192"
     rx="3.6046369"
     id="rect1696-4"
     style="fill:#424242;fill-opacity:1;stroke-width:1.00688" />
  <path
     fill="#333333"
     d="m 499.27722,126.23537 v 88.70554 c 0.02,1.47087 -1.55401,2.30181 -4.02559,2.84022 -5.67142,1.23544 -15.74594,0.60746 -19.82783,0.33145 -1.67197,-0.12159 -3.49594,-1.37811 -3.49594,-3.02981 -0.0203,-52.42213 0,-104.84088 0.0608,-157.256263 0.0203,-19.96229 10.883,-39.69152 29.78132,-47.38258 15.23011,-6.1913502 33.2975,-4.2761802 49.83479,-4.3065802 1.32016,-1.1e-4 2.39505,1.06123 2.4117,2.38128 l 0.22292,20.2662902 c 0.0169,1.47971 -1.17959,2.68983 -2.66501,2.69542 -9.30223,0.007 -18.63485,0.007 -27.99787,0 -2.06717,0 -3.6074,0.77012 -5.70497,1.09437 -11.98751,1.88478 -18.52339,17.20608 -18.56392,27.81548 -0.054,12.62591 -0.0574,25.20452 -0.0103,37.73584 0.006,1.27598 1.04451,2.305833 2.32049,2.300223 l 44.25144,-0.16213 c 1.06599,-0.001 1.94717,0.8353 2.00637,1.90503 0.31412,6.36362 0.081,12.85896 0.44585,19.3847 0.14862,2.67515 -1.16193,4.02286 -3.93166,4.04312 -14.88221,0.10133 -29.74753,0.14187 -44.59597,0.12161 -0.34453,0 -0.51679,0.17226 -0.51679,0.51679 z"
     id="path1698-0"
     style="fill:#424242;fill-opacity:1;stroke-width:1.01331"
     sodipodi:nodetypes="ccscccccccccccccccccccc" />
  <rect
     fill="#333333"
     x="576.27997"
     y="6.0845804"
     width="26.633968"
     height="211.63922"
     rx="4.2948503"
     id="rect1700-4"
     style="fill:#424242;fill-opacity:1;stroke-width:0.997411" />
  <path
     fill="#333333"
     d="m 660.64304,31.253137 -33.52007,-0.061 a 2.7543787,2.7543787 0 0 1 -2.74422,-2.52061 c -0.48785,-6.10842 -1.30096,-16.32299 1.03671,-22.2078102 a 1.0163759,1.0163759 0 0 1 0.94523,-0.64032 h 96.53538 a 2.8255249,2.8255249 0 0 1 2.82553,2.82553 V 29.037427 a 1.9514417,1.9514417 0 0 1 -1.93112,1.95144 l -34.23154,0.31508 q -0.57933,0.0103 -0.57933,0.5895 l -0.10166,182.490293 a 3.8215733,3.8215733 0 0 1 -3.70978,3.81141 c -6.98249,0.19311 -14.524,1.22981 -21.47602,-0.0711 a 2.4596296,2.4494659 2.9 0 1 -1.99209,-2.19537 q -0.28459,-3.42519 -0.27442,-7.33823 0.14229,-88.46536 -0.3659,-176.930723 -0.0103,-0.40655 -0.41672,-0.40655 z"
     id="path1702-9"
     style="fill:#424242;fill-opacity:1;stroke-width:1.01638" />
  <circle
     fill="#333333"
     cx="423.6409"
     cy="202.95082"
     r="16.663895"
     id="circle1754-6"
     style="fill:#424242;fill-opacity:1;stroke-width:1.00688" />
  <g
     id="g12257"
     transform="translate(-0.42484901,-240.49603)">
    <g
       id="g12206"
       transform="matrix(0.98280327,0,0,0.98280327,4.1685602,248.1775)"
       style="fill:#424242;fill-opacity:1">
      <path
         fill="#333333"
         d="m 942.96469,178.77906 c -0.72765,-1.17694 -0.74967,-1.18378 -1.27,-2.57 -0.3,-0.21333 -0.47333,-0.13667 -0.52,0.23 0.0888,0.86667 0.20218,1.20202 0.34,2.21 l 0.33,32.98 c 0.007,0.38667 -0.16,0.67 -0.5,0.85 -1.84667,0.96667 -3.74,0.94667 -5.68,-0.06 -0.29493,-0.15308 -0.48002,-0.45771 -0.48,-0.79 l -0.03,-45.65 c 5.2e-4,-0.39095 0.2561,-0.73579 0.63,-0.85 3.18,-0.98 5.82,-0.26 7.6,2.81 3.74,6.46 7.37667,12.96667 10.91,19.52 1.29,2.4 1.39,5.09 -1.19,6.45 -0.47654,0.25083 -1.06607,0.0836 -1.34,-0.38 z"
         id="path1740-2"
         sodipodi:nodetypes="ccccccscccccccc"
         style="fill:#424242;fill-opacity:1" />
      <path
         fill="#333333"
         d="m 976.55469,178.78906 c 0.16583,-1.06443 0.16557,-1.40317 0.27,-2.37 -0.1,-0.30667 -0.25333,-0.33667 -0.46,-0.09 -0.51966,0.93042 -0.83266,1.72692 -1.3,2.57 -5.92,11.16667 -10.4,19.08333 -13.44,23.75 -0.77,1.18 -3.09,2.03 -4.53,1.33 -1.18667,-0.58 -1.44333,-1.53 -0.77,-2.85 3.02667,-5.91333 9.20333,-16.93667 18.53,-33.07 1.71,-2.96 3.39,-3.58 6.67,-3.04 0.94536,0.14797 1.64165,0.96313 1.64,1.92 v 44.78 c -7.5e-4,0.3338 -0.18065,0.64002 -0.47,0.8 -1.77333,1 -3.52,0.99333 -5.24,-0.02 -0.34165,-0.19783 -0.55431,-0.56619 -0.56,-0.97 z"
         id="path1742-0"
         sodipodi:nodetypes="ccccccccccccccc"
         style="fill:#424242;fill-opacity:1" />
      <path
         fill="#333333"
         d="m 753.92469,195.77906 c -8.73,-4.43 -30.68,-4.97 -26.17,-20.65 3.6,-12.54 19.72,-12.72 29.24,-7.4 2.17,1.21 4.26,3.51 1.58,5.63 a 2.35,2.35 0 0 1 -2.69,0.16 c -5.6,-3.39 -22.1,-6.86 -22.26,3.94 -0.18,11.95 26.96,4.35 28.68,20.66 0.95,9.13 -5.52,13.83 -13.91,15.2 -7.06,1.15 -15.35,-1.76 -21.32,-5.44 a 1.52,1.52 0 0 1 -0.71,-1.13 q -0.29,-2.95 2,-5.03 a 0.67,0.68 43.2 0 1 0.86,-0.03 c 6.53,5.01 14.79,8.29 22.43,4.72 q 6.45,-3.02 2.9,-10 -0.22,-0.42 -0.63,-0.63 z"
         id="path1728-0"
         style="fill:#424242;fill-opacity:1" />
      <path
         fill="#333333"
         d="m 812.35469,170.63906 c 5.97,-8.53 20.16,-7.28 27.94,-2.38 1.86,1.17 2.55,2.8 1.28,4.73 a 2.27,2.27 0 0 1 -3.12,0.66 c -4.84,-3.1 -14.93,-5.61 -19.83,-1.31 -6.02,5.26 -0.85,11.5 5.48,12.55 q 5.93,0.98 11.56,3 c 7.35,2.64 11.03,9.24 8.44,16.87 q -0.96,2.81 -3.47,4.61 c -8.24,5.92 -18.97,4.65 -27.73,0.32 -2.49,-1.23 -4.61,-2.14 -4.23,-4.94 q 0.24,-1.79 2.04,-2.67 a 0.86,0.87 48.1 0 1 0.85,0.04 c 3.1,1.97 6.3,4.07 9.69,4.92 4.91,1.23 16.68,1.73 17.02,-6.12 q 0.22,-4.96 -5.12,-6.66 c -6.11,-1.95 -18.43,-3.79 -21.82,-9.88 q -3.81,-6.84 1.02,-13.74 z"
         id="path1730-7"
         style="fill:#424242;fill-opacity:1" />
      <path
         fill="#333333"
         d="m 780.58469,188.80906 a 1.12,1.12 0 0 1 -1.98,0.11 l -13.75,-23.25 q -0.28,-0.46 0.24,-0.62 4.91,-1.47 7.01,1.94 5.21,8.51 10.19,17.09 a 0.91,0.93 41.7 0 1 0.04,0.85 z"
         id="path1732-2"
         style="fill:#424242;fill-opacity:1" />
      <path
         fill="#333333"
         d="m 799.35469,166.88906 q 1.95,-3.19 6.27,-1.92 0.45,0.13 0.52,0.6 c 0.24,1.63 -0.99,2.38 -1.6,3.43 q -6.61,11.37 -13.41,22.64 c -3.14,5.2 -2.34,13.93 -2.18,19.72 a 1.96,1.96 0 0 1 -1.94,2.02 q -2.19,0.02 -4.12,-1.07 a 0.94,0.94 0 0 1 -0.48,-0.82 c 0,-7.12 -1.2,-14.36 2.56,-20.72 q 7.09,-12 14.38,-23.88 z"
         id="path1734-3"
         style="fill:#424242;fill-opacity:1" />
      <rect
         fill="#333333"
         x="847.61505"
         y="167.94823"
         transform="rotate(-0.2)"
         width="39.759998"
         height="4.98"
         rx="1.59"
         id="rect1736-0"
         style="fill:#424242;fill-opacity:1" />
      <path
         fill="#333333"
         d="m 894.32469,166.65906 q 0.01,-1.62 1.63,-1.63 l 28.55,-0.28 a 1.96,1.96 0 0 1 1.86,1.26 q 0.87,2.27 -0.81,3.88 -0.33,0.31 -0.77,0.27 -11.67,-0.97 -23.33,0.23 a 1.13,1.14 87.2 0 0 -1.03,1.13 l -0.02,6.91 a 1.29,1.29 0 0 1 -1.29,1.28 l -3.39,-0.02 a 1.48,1.48 0 0 1 -1.47,-1.49 z"
         id="path1738-2"
         style="fill:#424242;fill-opacity:1" />
      <rect
         fill="#333333"
         x="864.86469"
         y="176.43906"
         width="6.3000002"
         height="36.580002"
         rx="1.5"
         id="rect1750-1"
         style="fill:#424242;fill-opacity:1" />
      <path
         fill="#333333"
         d="m 900.71469,192.15906 -0.17,8.31 a 1.21,1.21 0 0 1 -1.19,1.18 l -3.69,0.08 a 1.21,1.21 0 0 1 -1.24,-1.21 l -0.01,-13.61 a 1.21,1.21 0 0 1 1.21,-1.21 h 26.34 a 1.21,1.21 0 0 1 1.21,1.23 l -0.05,2.71 a 1.21,1.21 0 0 1 -1.2,1.19 l -20,0.14 a 1.21,1.21 0 0 0 -1.21,1.19 z"
         id="path1756-7"
         style="fill:#424242;fill-opacity:1" />
      <rect
         fill="#333333"
         x="894.18469"
         y="207.59906"
         width="32.959999"
         height="5.3400002"
         rx="1.17"
         id="rect1758-6"
         style="fill:#424242;fill-opacity:1" />
    </g>
  </g>
  <path
     fill="#333333"
     d="m 166.45004,166.25637 c -0.18673,63.46943 -92.904388,72.14759 -102.693108,8.99265 -0.805899,-5.23834 -1.061428,-12.18676 -1.00246,-17.93616 Q 63.41295,91.268477 63.000173,62.639417 c -0.167077,-11.48897 1.130224,-21.2089 6.584782,-31.18435 Q 82.027245,8.7129968 109.48677,6.5311768 c 28.9239,-2.29976 50.44729,17.4742402 54.04435,45.5037902 0.55037,4.25554 3.0172,11.11551 -3.27274,11.63639 q -8.93368,0.7371 -17.9165,0.3145 c -5.00247,-0.2457 -4.82556,-5.09092 -5.35628,-9.02213 -2.30958,-16.80594 -15.97055,-29.59221 -33.44479,-21.7003 -10.191672,4.60935 -13.719936,15.89193 -13.719936,26.63397 q 0.0098,53.199143 0.0098,106.408113 c 0,21.69047 21.936166,34.93866 39.950956,21.8772 7.19412,-5.20886 10.12287,-13.92632 10.14253,-22.66344 q 0.059,-18.76172 0.0197,-37.55292 0,-0.50123 -0.51106,-0.51105 -9.52337,-0.0393 -18.97793,-0.01 c -3.07618,0.0197 -4.39313,-0.75676 -4.67815,-3.88207 -0.46191,-5.0811 -1.46437,-13.75925 0.70762,-18.40791 a 2.2604475,2.2604475 0 0 1 2.04423,-1.2973 q 17.0025,0.01 34.12293,-0.01 c 9.40542,-0.01 13.81821,3.41033 13.83787,12.89438 q 0.0295,24.75682 -0.0393,49.51363 z"
     id="path1692-9"
     style="fill:#424242;fill-opacity:1;stroke-width:0.982803" />
  <path
     id="path9239"
     d="M 288.09276,5.7281868 C 229.65638,5.7287168 182.2839,53.101807 182.28411,111.53818 c -2.1e-4,58.43642 47.37227,105.80947 105.80865,105.81 58.43695,2.1e-4 105.8102,-47.37305 105.80999,-105.81 C 393.90296,53.101277 346.52971,5.7279768 288.09276,5.7281868 Z m 0.91753,1.65799 c 2.25935,0.0203 4.51902,0.1176 6.77284,0.28707 0.0488,0.004 0.0975,0.007 0.14621,0.0107 2.25577,0.17287 4.50569,0.41818 6.74735,0.74047 2.26483,0.32561 4.52035,0.72792 6.76211,1.20594 2.24183,0.4780202 4.47013,1.0317102 6.68028,1.6620102 2.21022,0.63032 4.40301,1.33697 6.57297,2.11946 2.16989,0.78247 4.31776,1.64098 6.43883,2.57553 2.12062,0.93438 4.21473,1.94534 6.27784,3.0316 h 0.002 c 2.06346,1.08649 4.09538,2.24947 6.09273,3.4877 1.99736,1.23831 3.95965,2.55243 5.88214,3.94244 1.92255,1.39001 3.80566,2.85564 5.6447,4.39718 1.83911,1.5416 3.63476,3.15884 5.38179,4.85193 1.74702,1.693 3.44572,3.46223 5.09203,5.30665 1.64631,1.84444 3.23985,3.76441 4.7768,5.76008 1.53695,1.9956 3.01713,4.06673 4.43609,6.21345 2.83784,4.29359 5.43125,8.88984 7.74536,13.78714 0.0458,0.0962 0.0438,0.17175 -0.007,0.22669 -0.0733,0.087 -0.13474,0.0792 -0.18511,-0.0214 -1.19204,-2.31754 -2.45046,-4.56302 -3.77074,-6.73662 -1.31298,-2.16167 -2.68775,-4.25185 -4.1195,-6.27114 -0.008,-0.0112 -0.0148,-0.0236 -0.0228,-0.0349 -0.009,-0.012 -0.0182,-0.0228 -0.0268,-0.0349 -1.43245,-2.01678 -2.92134,-3.96318 -4.46425,-5.83786 -1.55222,-1.88583 -3.15845,-3.70021 -4.81436,-5.44215 -1.65593,-1.742 -3.36213,-3.4121 -5.1135,-5.01021 -1.75145,-1.59804 -3.54845,-3.12408 -5.38716,-4.57827 -1.83876,-1.4542 -3.71878,-2.83606 -5.63664,-4.14633 -1.89995,-1.29799 -3.83873,-2.52412 -5.80836,-3.68087 -0.0384,-0.0225 -0.077,-0.0445 -0.11537,-0.067 -1.95925,-1.14718 -3.94918,-2.22532 -5.96931,-3.23283 -0.0109,-0.005 -0.0212,-0.012 -0.0323,-0.0174 h -0.002 c -0.01,-0.005 -0.0197,-0.01 -0.0295,-0.0147 -2.032,-1.01178 -4.09296,-1.95307 -6.17859,-2.82369 -0.01,-0.004 -0.0196,-0.009 -0.0295,-0.0134 h -0.002 c -0.009,-0.003 -0.0179,-0.007 -0.0268,-0.0107 -2.07415,-0.86437 -4.17468,-1.65757 -6.29395,-2.38236 -0.0479,-0.0164 -0.0956,-0.0332 -0.14353,-0.0496 -2.12173,-0.72216 -4.26262,-1.37475 -6.42138,-1.95713 -0.007,-0.002 -0.0142,-0.004 -0.0214,-0.007 h -0.002 c -0.006,-0.002 -0.0126,-0.002 -0.0188,-0.004 -2.18451,-0.58836 -4.38675,-1.10678 -6.60114,-1.55203 -2.22101,-0.4466 -4.45474,-0.82149 -6.69772,-1.12411 -2.2158,-0.29896 -4.44031,-0.52568 -6.66954,-0.68412 -0.055,-0.004 -0.11001,-0.007 -0.165,-0.0107 -2.22914,-0.15495 -4.46323,-0.24174 -6.69772,-0.2562 -2.26215,-0.0146 -4.52532,0.0424 -6.78491,0.1717 -2.25957,0.12935 -4.51468,0.33028 -6.76344,0.60363 h -0.002 c -2.2483,0.27334 -4.48994,0.61964 -6.71917,1.03693 -2.22974,0.41737 -4.44823,0.90611 -6.65077,1.46751 -2.20248,0.56139 -4.38835,1.19538 -6.55553,1.9008 h -0.002 c -2.14327,0.69759 -4.26701,1.46734 -6.36773,2.3059 -0.0457,0.0181 -0.0912,0.0366 -0.13683,0.055 -2.10042,0.84185 -4.17847,1.75224 -6.22821,2.73516 -2.0719,0.9935 -4.11564,2.05911 -6.12762,3.19659 -1.99282,1.12674 -3.95339,2.32562 -5.87945,3.59368 -0.0359,0.0236 -0.0715,0.0475 -0.10731,0.071 -1.92586,1.27148 -3.81795,2.61263 -5.66884,4.0256 -1.85227,1.41399 -3.66355,2.90052 -5.43277,4.45621 -0.0284,0.0249 -0.0575,0.0489 -0.0858,0.0738 -1.76881,1.55882 -3.49499,3.18743 -5.17253,4.88814 -1.67906,1.70223 -3.3085,3.47705 -4.88815,5.32142 -0.0108,0.0126 -0.0228,0.0237 -0.0335,0.0362 v 0.002 c -0.01,0.0117 -0.0195,0.0245 -0.0295,0.0362 -1.56891,1.83536 -3.0875,3.74003 -4.55009,5.71579 -0.009,0.0125 -0.019,0.0239 -0.0282,0.0362 v 0.002 c -0.009,0.0112 -0.0158,0.0236 -0.0242,0.0349 -1.47146,1.99133 -2.88859,4.05286 -4.24425,6.18665 -1.36352,2.14608 -2.66671,4.3645 -3.90488,6.65478 -0.0549,0.10531 -0.10792,0.10531 -0.15828,0 -0.0366,-0.0779 -0.0204,-0.18252 0.0482,-0.31523 1.20147,-2.43774 2.47165,-4.79821 3.80561,-7.08136 1.33397,-2.28323 2.73144,-4.48976 4.18926,-6.61858 1.45784,-2.12883 2.97572,-4.1799 4.54877,-6.15444 1.57298,-1.97454 3.20179,-3.87261 4.88143,-5.693 1.67963,-1.82038 3.4097,-3.56393 5.18728,-5.2302 1.77757,-1.66633 3.60216,-3.255 5.46897,-4.76741 1.86689,-1.51242 3.7763,-2.94871 5.72385,-4.30731 1.94747,-1.35853 3.93365,-2.63961 5.95324,-3.84451 2.0195,-1.20491 4.0728,-2.33308 6.15577,-3.38441 2.0829,-1.05125 4.19513,-2.02643 6.33285,-2.9243 2.13772,-0.89786 4.30059,-1.71832 6.48443,-2.46285 2.17667,-0.74209 4.37509,-1.40751 6.58906,-1.99738 0.0131,-0.004 0.0259,-0.008 0.0389,-0.0107 2.20979,-0.58784 4.43651,-1.0996402 6.67492,-1.5359402 0.01,-0.002 0.0196,-0.004 0.0295,-0.007 2.24617,-0.43712 4.50388,-0.79784 6.77016,-1.08253 2.2703,-0.28519 4.54857,-0.49413 6.83052,-0.62644 2.28194,-0.13232 4.56719,-0.18812 6.85198,-0.16768 z m 0.42926,27.0779402 c 1.30368,0.0142 2.60713,0.0645 3.9089,0.14488 0.39497,0.0244 0.78851,0.0701 1.18313,0.1006 0.89742,0.0693 1.79448,0.13924 2.68956,0.24011 0.49756,0.056 0.99235,0.13403 1.48897,0.19989 0.79997,0.10608 1.60009,0.21049 2.39712,0.34206 0.51213,0.0845 1.02119,0.18796 1.5319,0.28303 0.77462,0.1442 1.54849,0.28894 2.31932,0.45743 0.52752,0.1153 1.05198,0.24754 1.57752,0.37425 0.74358,0.17929 1.48627,0.36122 2.2254,0.5634 0.54859,0.15003 1.09334,0.31487 1.63923,0.47755 0.70717,0.21073 1.41316,0.4253 2.11543,0.65729 0.5676,0.18751 1.13142,0.38747 1.69555,0.58888 0.67468,0.2409 1.34684,0.48901 2.01616,0.74986 0.56162,0.21887 1.12055,0.44581 1.67812,0.67876 0.66944,0.2797 1.3355,0.5692 1.99871,0.86924 0.55312,0.25023 1.10413,0.50557 1.65264,0.76998 0.65616,0.3163 1.30661,0.64662 1.95579,0.98326 0.53767,0.27881 1.07441,0.55901 1.60702,0.8518 0.65928,0.36246 1.31139,0.74287 1.9625,1.1268 0.51086,0.30123 1.0223,0.60037 1.52788,0.91485 0.65307,0.40621 1.2972,0.83257 1.94104,1.26093 0.49117,0.32678 0.98465,0.64758 1.47019,0.98729 0.65577,0.45878 1.30001,0.94218 1.94507,1.42459 0.45873,0.34307 0.92186,0.6765 1.37495,1.03155 0.66569,0.52165 1.31753,1.07153 1.97055,1.61909 0.41683,0.34952 0.84008,0.68623 1.25155,1.04633 0.69358,0.60698 1.36926,1.24623 2.047,1.88334 0.35653,0.33514 0.72116,0.65453 1.07314,0.99802 1.01503,0.99059 2.01317,2.01291 2.98869,3.07319 0.27129,0.2919 0.6603,0.64191 1.03289,0.99132 0.3726,0.34941 0.72834,0.69883 0.93095,0.98728 0.39835,0.56776 0.57391,0.87097 0.52584,0.91217 h -0.002 c -4.3e-4,3.5e-4 -0.004,-0.003 -0.004,-0.003 -0.0524,0.0351 -0.31974,-0.1826 -0.80887,-0.66267 -0.894,-0.87854 -1.80375,-1.7337 -2.72979,-2.56479 -1.85205,-1.66224 -3.76781,-3.22919 -5.74799,-4.70169 -1.97999,-1.47226 -4.02483,-2.85033 -6.13299,-4.13292 h -0.002 c -2.10816,-1.28255 -4.2803,-2.47128 -6.51663,-3.56416 h -0.002 c -1.11835,-0.54652 -2.25144,-1.06904 -3.40185,-1.56812 -0.19231,-0.0823 -0.30821,-0.10085 -0.34743,-0.0551 -0.0393,0.0459 -0.002,0.156 0.11268,0.32999 0.81215,1.25256 1.44199,2.45644 1.90214,3.60976 0.46014,1.15331 0.75103,2.2552 0.88533,3.30392 v 0.002 c 0.067,0.52388 0.0953,1.03512 0.0858,1.5319 -0.0188,0.99443 -0.18688,1.93381 -0.49229,2.81564 -0.15271,0.44091 -0.33993,0.86795 -0.55938,1.27972 -0.43892,0.82352 -1.00794,1.58691 -1.69421,2.2898 -0.68629,0.70292 -1.48963,1.34529 -2.39712,1.92227 -0.9075,0.57696 -1.91968,1.08889 -3.02223,1.53458 -1.10255,0.44569 -2.29538,0.82443 -3.56683,1.1335 -0.21979,0.055 -0.43035,0.0366 -0.63181,-0.055 -1.79829,-0.7801 -3.59745,-1.46821 -5.39655,-2.06446 -1.79909,-0.59623 -3.59797,-1.10073 -5.39788,-1.51311 -1.77977,-0.40778 -3.55963,-0.72307 -5.3402,-0.95107 -0.0394,-0.005 -0.0787,-0.01 -0.11803,-0.0147 -1.78062,-0.22405 -3.56151,-0.36086 -5.3429,-0.40511 -0.002,-4e-5 -0.003,3e-5 -0.004,0 -1.80106,-0.0446 -3.60276,0.004 -5.40459,0.14219 -1.80228,0.13919 -3.60557,0.37044 -5.40861,0.69351 -1.80305,0.32306 -3.60614,0.7379 -5.40996,1.24483 -1.80381,0.50694 -3.60807,1.10536 -5.41263,1.79617 -2.45878,0.93863 -4.34537,1.44098 -5.65946,1.50507 -0.79113,0.0389 -1.55125,0.0205 -2.28042,-0.047 -0.0238,-0.003 -0.0474,-0.004 -0.071,-0.007 -0.71314,-0.0695 -1.39458,-0.18831 -2.04433,-0.3501 -0.027,-0.007 -0.0537,-0.0132 -0.0805,-0.0202 -0.65622,-0.16776 -1.28016,-0.37789 -1.86726,-0.63048 -0.59979,-0.25803 -1.1625,-0.55858 -1.68616,-0.89472 -0.51815,-0.33259 -0.99697,-0.70118 -1.43667,-1.09996 -0.004,-0.004 -0.0101,-0.008 -0.0147,-0.0121 h -0.002 c -0.005,-0.005 -0.01,-0.0111 -0.0147,-0.0161 -0.43156,-0.39452 -0.82494,-0.81889 -1.17642,-1.26764 -0.004,-0.005 -0.009,-0.0106 -0.0135,-0.0161 -0.004,-0.004 -0.006,-0.009 -0.01,-0.0134 -0.35516,-0.45686 -0.66908,-0.93827 -0.93767,-1.44068 -0.27112,-0.50718 -0.49719,-1.0344 -0.67607,-1.57751 -0.17889,-0.54312 -0.3104,-1.10157 -0.39304,-1.67007 -0.0826,-0.56851 -0.11558,-1.1471 -0.0979,-1.73043 0.0176,-0.58294 0.0861,-1.17137 0.20793,-1.75862 v -0.002 c 0.12197,-0.58768 0.29687,-1.17448 0.52717,-1.75593 0.23018,-0.58108 0.51611,-1.15671 0.8585,-1.72103 v -0.002 c 0.34271,-0.56469 0.74285,-1.11794 1.20192,-1.65531 0.45909,-0.53738 0.97787,-1.05787 1.55739,-1.5574 0.57952,-0.49954 1.21965,-0.97747 1.9236,-1.42862 0.0802,-0.0566 0.0755,-0.14192 0.0537,-0.21595 a 0.19917428,0.19917428 0 0 0 -0.0254,-0.051 c -0.0469,-0.0612 -0.11358,-0.11578 -0.20659,-0.0845 -2.73577,1.08973 -5.38257,2.30953 -7.94121,3.6594 -2.55864,1.34984 -5.02853,2.83011 -7.41001,4.44011 -4.76301,3.21998 -9.17197,6.96052 -13.22642,11.22098 -0.0412,0.0458 -0.0695,0.0373 -0.0831,-0.0268 -0.009,-0.055 0.007,-0.11005 0.0482,-0.16499 0.96515,-1.15263 1.95807,-2.26881 2.9726,-3.35356 0.37325,-0.39906 0.76325,-0.77318 1.14289,-1.16301 0.65251,-0.67007 1.30245,-1.3439 1.97323,-1.98664 0.43907,-0.42073 0.89346,-0.81709 1.34008,-1.22606 0.6416,-0.58753 1.2804,-1.17927 1.93701,-1.74251 0.46519,-0.39904 0.94276,-0.77621 1.41521,-1.16301 0.65035,-0.53248 1.30026,-1.06559 1.96383,-1.57483 0.50482,-0.38739 1.01976,-0.75556 1.5319,-1.12947 0.65098,-0.47527 1.30151,-0.94972 1.96386,-1.40314 0.52687,-0.36069 1.06118,-0.70483 1.59494,-1.05166 0.67533,-0.43885 1.35178,-0.87386 2.03762,-1.29046 0.53286,-0.32367 1.0708,-0.63414 1.6097,-0.94436 0.68744,-0.39571 1.37706,-0.78524 2.07383,-1.15899 0.57309,-0.30739 1.15004,-0.60357 1.7291,-0.89606 0.67658,-0.34176 1.35601,-0.67397 2.04031,-0.99534 0.59348,-0.27873 1.18915,-0.54955 1.78811,-0.8129 0.70348,-0.3093 1.41024,-0.6067 2.12079,-0.89472 0.58129,-0.23566 1.16351,-0.46678 1.74921,-0.68816 0.73185,-0.27659 1.46705,-0.53852 2.2053,-0.79277 0.59129,-0.20367 1.18231,-0.40632 1.77738,-0.5956 0.73595,-0.23408 1.4761,-0.44929 2.21737,-0.66132 0.60292,-0.17248 1.2048,-0.34651 1.81093,-0.50437 0.74221,-0.19332 1.48825,-0.36524 2.2348,-0.53657 0.61264,-0.14061 1.22387,-0.28605 1.83909,-0.41182 0.75704,-0.15476 1.51728,-0.28495 2.27773,-0.41719 0.60538,-0.10525 1.20905,-0.22024 1.81629,-0.3112 0.7862,-0.11778 1.57479,-0.20543 2.36358,-0.29915 0.58853,-0.07 1.17564,-0.15409 1.76531,-0.21059 0.89414,-0.0856 1.79081,-0.13712 2.68687,-0.19182 0.47782,-0.0292 0.95447,-0.0749 1.43265,-0.0953 1.38197,-0.0588 2.76478,-0.0849 4.14767,-0.0698 z m -55.53485,11.69049 c 0.0641,0.005 0.0683,0.0336 0.0134,0.0886 -1.1195,1.10985 -2.20562,2.24311 -3.25698,3.39917 v 0.002 c -0.487,0.5355 -0.9415,1.09157 -1.41385,1.63653 -1.56689,1.80768 -3.07772,3.65011 -4.48304,5.55482 -2.74414,3.71917 -5.17939,7.61264 -7.30404,11.64086 -0.70814,1.3425 -1.38119,2.69894 -2.02018,4.06988 -0.36013,0.77262 -0.68403,1.55854 -1.02217,2.33944 -0.26186,0.60481 -0.54278,1.20277 -0.79143,1.81226 v 0.002 c -0.15681,0.38441 -0.28977,0.77682 -0.44133,1.163 -0.94934,2.41903 -1.81712,4.86566 -2.55943,7.34563 -0.43051,1.4382 -0.82649,2.88491 -1.18716,4.3395 v 0.002 c -0.36054,1.45416 -0.68597,2.91604 -0.97655,4.38376 -0.5814,2.93665 -1.02229,5.8967 -1.32264,8.869473 -0.15016,1.48621 -0.26511,2.97489 -0.34475,4.4656 v 0.002 c -0.002,0.0429 -0.002,0.0858 -0.004,0.12878 -0.15294,2.93831 -0.17158,5.88259 -0.0496,8.82119 v 0.002 c 0.1238,2.98149 0.38867,5.957 0.7968,8.91509 v 0.002 c 0.61231,4.43736 1.54628,8.83495 2.80224,13.15264 v 0.002 c 0.83731,2.87831 1.81803,5.72122 2.94308,8.51669 v 0.002 c 0.56247,1.39754 1.16153,2.78336 1.79616,4.15572 v 0.002 c 0.63466,1.37238 1.30648,2.73103 2.01348,4.07525 0.70736,1.34493 1.44955,2.67426 2.22944,3.98804 1.55948,2.62677 3.26415,5.18858 5.11483,7.67293 1.85071,2.4844 3.84752,4.89198 5.99081,7.21014 1.07162,1.15909 2.18039,2.2955 3.32537,3.40855 0.0503,0.0503 0.0667,0.0927 0.0482,0.12476 -0.0137,0.0229 -0.0399,0.0434 -0.0765,0.0617 -0.0458,0.0183 -0.0932,0.009 -0.14354,-0.0283 -0.80128,-0.58606 -1.56795,-1.21138 -2.30054,-1.8753 -1.21712,-1.10384 -2.39475,-2.23201 -3.53331,-3.38307 -1.13832,-1.1508 -2.23739,-2.3237 -3.29721,-3.51855 -1.06007,-1.19512 -2.07952,-2.41133 -3.06112,-3.64732 -2.9439,-3.70706 -5.53647,-7.59134 -7.77623,-11.61 -2.23986,-4.01897 -4.12808,-8.17295 -5.66617,-12.41888 -1.0253,-2.83067 -1.89472,-5.70245 -2.60906,-8.60254 -0.35727,-1.45051 -0.67549,-2.90723 -0.95509,-4.37035 -0.27953,-1.46273 -0.52103,-2.93029 -0.72302,-4.40255 -0.20206,-1.47271 -0.36507,-2.94894 -0.48962,-4.42803 -0.1245,-1.47814 -0.21037,-2.95867 -0.25755,-4.4401 v -0.002 c -0.0943,-2.96379 -0.0335,-5.93033 0.18109,-8.88827 0.10729,-1.47897 0.25291,-2.95529 0.4373,-4.42803 0.36878,-2.945603 0.89148,-5.876243 1.56812,-8.778263 1.69171,-7.25552 4.34362,-14.33541 7.95195,-21.04423 0.26276,-0.48855 0.55745,-0.96426 0.83034,-1.44873 1.9753,-3.50722 4.18978,-6.91859 6.69503,-10.18274 3.80203,-4.95374 8.21387,-9.59471 13.23179,-13.822 0.0275,-0.0229 0.06,-0.0335 0.0966,-0.0335 z m 110.85508,2.22944 c 0.0355,0.002 0.0702,0.0189 0.10463,0.051 1.21181,1.09933 2.38456,2.22421 3.51854,3.37368 1.13352,1.149 2.22807,2.32147 3.28381,3.5172 v 0.002 c 1.0557,1.19573 2.07379,2.41366 3.05174,3.6527 v 0.002 c 1.95595,2.47839 3.75709,5.03984 5.40189,7.67158 v 0.002 c 0.82227,1.31569 1.6057,2.64852 2.35017,3.99742 v 0.002 c 1.48904,2.69822 2.82366,5.46009 4.00146,8.27121 1.76694,4.21718 3.18338,8.54533 4.24962,12.9407 v 0.002 c 0.35529,1.46466 0.67227,2.93685 0.94974,4.41462 v 0.002 c 0.55498,2.95598 0.95432,5.935213 1.19788,8.923143 0.12181,1.49422 0.20425,2.99123 0.24817,4.4884 0.0878,2.99428 0.0199,5.99085 -0.2039,8.9768 -0.22372,2.98594 -0.60221,5.96047 -1.13753,8.91105 v 0.002 c -1.87362,10.32658 -5.65679,20.35517 -11.34842,29.50591 -2.43937,3.92187 -5.22958,7.68277 -8.37047,11.2371 -2.09398,2.3695 -4.34419,4.64729 -6.75004,6.81979 -1.20291,1.08618 -2.44422,2.1459 -3.72513,3.17783 -0.0458,0.0412 -0.10302,0.0552 -0.1717,0.0416 -0.0183,0 -0.0345,-0.002 -0.0482,-0.007 -0.055,-0.005 -0.0691,-0.0208 -0.0416,-0.0482 3.40825,-3.24987 6.50699,-6.70867 9.29472,-10.337 l 0.002,-0.002 c 1.85844,-2.41892 3.57899,-4.91365 5.1618,-7.47305 v -0.002 c 1.5827,-2.5594 3.02822,-5.1832 4.33547,-7.86073 v -0.002 c 1.96077,-4.01643 3.61131,-8.15356 4.95253,-12.37328 0.89423,-2.81356 1.65206,-5.66469 2.27102,-8.54083 0.30939,-1.4376 0.58435,-2.88234 0.82498,-4.33146 v -0.002 c 0.24061,-1.44911 0.44651,-2.90315 0.61839,-4.36096 v -0.002 c 0.34377,-2.91604 0.55092,-5.84679 0.61975,-8.78094 v -0.002 c 0.10316,-4.40146 -0.10325,-8.81064 -0.6184,-13.1902 v -0.002 c -0.17171,-1.459593 -0.37804,-2.916093 -0.61841,-4.367693 v -0.002 c -0.48089,-2.90405 -1.09963,-5.78871 -1.85517,-8.64412 -1.13332,-4.28306 -2.57516,-8.49833 -4.32609,-12.60936 v -0.002 c -0.58364,-1.37036 -1.20161,-2.72821 -1.85385,-4.07389 -1.30447,-2.69133 -2.74604,-5.33035 -4.32473,-7.90634 v -0.002 c -0.7892,-1.28768 -1.61321,-2.55903 -2.4709,-3.81365 v -0.002 c -1.71569,-2.50959 -3.56914,-4.94984 -5.55886,-7.31075 v -0.002 c -0.99498,-1.1806 -2.02453,-2.34041 -3.08795,-3.47965 -0.087,-0.0916 -0.12586,-0.17491 -0.11671,-0.24817 0.005,-0.0641 0.0328,-0.1192 0.0831,-0.16499 0.0366,-0.0297 0.0718,-0.044 0.10732,-0.043 z m -16.22181,5.49313 a 0.12362542,0.11675734 74.2 0 1 0.063,0.12073 c -0.0507,0.53312 -0.12922,1.0529 -0.23341,1.55873 -0.31257,1.51747 -0.85733,2.91055 -1.58959,4.17851 l -0.002,0.002 c -0.48796,0.84471 -1.0585,1.6344 -1.69823,2.36628 -0.64016,0.73233 -1.34958,1.40784 -2.11408,2.02554 -0.76203,0.61569 -1.57922,1.17262 -2.43737,1.67275 -0.003,0.002 -0.005,0.004 -0.008,0.005 l -0.002,0.002 c -0.004,0.003 -0.0101,0.004 -0.0147,0.007 -0.85655,0.49766 -1.7541,0.93882 -2.67881,1.31994 -0.93031,0.38343 -1.88817,0.70739 -2.85993,0.97119 -0.97174,0.26381 -1.95751,0.46784 -2.94308,0.61036 -0.22435,0.0321 -0.43919,-4.4e-4 -0.64521,-0.0966 -1.73332,-0.80871 -3.46734,-1.51849 -5.20338,-2.13153 -1.73562,-0.61287 -3.47372,-1.12977 -5.21277,-1.54933 h -0.002 c -1.73945,-0.41964 -3.47994,-0.74267 -5.22349,-0.9712 -1.72748,-0.2264 -3.45778,-0.35736 -5.18996,-0.3984 -0.0326,-7.7e-4 -0.0653,-0.002 -0.0979,-0.003 -1.7319,-0.0375 -3.46609,0.0155 -5.20337,0.16097 -1.75386,0.14686 -3.51039,0.38655 -5.27045,0.71766 -1.76007,0.33113 -3.52362,0.7532 -5.29056,1.26631 -1.76693,0.51309 -3.53752,1.11676 -5.31203,1.80957 -0.64518,0.25197 -1.2956,0.46694 -1.94909,0.64657 -0.65349,0.17963 -1.30925,0.32452 -1.96519,0.43327 h -0.002 c -0.65548,0.10864 -1.3118,0.18202 -1.96384,0.22134 -0.65247,0.0394 -1.30058,0.0446 -1.94371,0.0161 -0.002,-8e-5 -0.004,9e-5 -0.005,0 -0.6413,-0.0288 -1.27732,-0.0917 -1.90347,-0.18647 -0.6279,-0.095 -1.24707,-0.22229 -1.85385,-0.3823 -0.60167,-0.15866 -1.19018,-0.34898 -1.76531,-0.5701 -0.005,-0.002 -0.01,-0.004 -0.0147,-0.005 h -0.002 c -0.006,-0.003 -0.0115,-0.006 -0.0174,-0.008 -0.56708,-0.21942 -1.11976,-0.46966 -1.65532,-0.74851 -0.006,-0.003 -0.0117,-0.005 -0.0174,-0.008 h -0.002 c -0.006,-0.003 -0.0124,-0.008 -0.0188,-0.0107 -0.52843,-0.2769 -1.03969,-0.58399 -1.53189,-0.91753 -0.0201,-0.0136 -0.0403,-0.0266 -0.0603,-0.0402 -0.49774,-0.34073 -0.97659,-0.70907 -1.43128,-1.10667 -0.46342,-0.40523 -0.90309,-0.83969 -1.31594,-1.30252 -0.41284,-0.46284 -0.79857,-0.95388 -1.15496,-1.47289 -0.35639,-0.51899 -0.68251,-1.06554 -0.97656,-1.63922 -0.29404,-0.57366 -0.55623,-1.17464 -0.78204,-1.80152 -0.22582,-0.62689 -0.41575,-1.27987 -0.56742,-1.95848 -0.15169,-0.67859 -0.26501,-1.38254 -0.3367,-2.11139 a 0.10302118,0.10302118 0 0 1 0.0858,-0.0993 c 0.0453,-0.009 0.0942,0.01 0.11403,0.0644 0.19187,0.628 0.41242,1.23336 0.65997,1.81628 0.24756,0.58293 0.52171,1.14289 0.82095,1.67947 0.5985,1.07316 1.29662,2.05231 2.07787,2.93235 0.39061,0.44002 0.80245,0.85637 1.23277,1.24617 0.43031,0.38983 0.87943,0.7536 1.34544,1.09192 0.46601,0.33832 0.94833,0.65076 1.44605,0.93631 0.49771,0.28555 1.01051,0.54385 1.53593,0.77534 0.52541,0.23149 1.06328,0.43555 1.61239,0.61169 0.54912,0.17615 1.10929,0.32449 1.67812,0.44401 0.56837,0.11943 1.14635,0.21072 1.73043,0.27232 h 0.002 c 0.58409,0.0616 1.17491,0.0941 1.77067,0.0966 h 0.002 0.002 c 0.59447,0.003 1.19403,-0.0253 1.79617,-0.0831 0.004,-3.4e-4 0.007,-8.5e-4 0.0107,-0.002 0.60172,-0.0581 1.2055,-0.1462 1.81091,-0.26561 0.58664,-0.11569 1.17486,-0.26284 1.76129,-0.4373 0.0422,-0.0125 0.084,-0.026 0.1261,-0.0389 0.58617,-0.17869 1.17112,-0.38377 1.75324,-0.62243 1.74334,-0.71426 3.48601,-1.33395 5.22885,-1.85786 5.22853,-1.57172 10.45452,-2.28658 15.67854,-2.14494 1.74133,0.0473 3.48266,0.19033 5.2235,0.42792 1.74082,0.23759 3.48181,0.57006 5.22214,0.99802 1.73538,0.42674 3.46986,0.94806 5.20473,1.5641 0.005,0.002 0.01,0.003 0.0147,0.005 h 0.002 c 0.006,0.003 0.0125,0.006 0.0188,0.008 1.73308,0.61668 3.46676,1.32729 5.19935,2.13286 a 1.311803,1.3255392 52.8 0 0 0.77534,0.10195 c 1.44913,-0.22492 3.12634,-0.67172 4.84119,-1.31996 1.71485,-0.64824 3.46793,-1.49799 5.06789,-2.52858 0.79998,-0.51529 1.56175,-1.07627 2.26164,-1.67946 0.69425,-0.59833 1.32615,-1.23843 1.87531,-1.91823 0.28109,-0.34806 0.54146,-0.70606 0.77534,-1.07447 0.23026,-0.36274 0.43588,-0.73558 0.61438,-1.11741 0.17849,-0.38182 0.32994,-0.77348 0.45072,-1.17375 0.12075,-0.40027 0.21118,-0.80931 0.26827,-1.2274 0.0183,-0.12362 0.0777,-0.22185 0.17842,-0.29511 a 0.12362542,0.11675734 74.2 0 1 0.12877,-0.0107 z m -40.50692,22.88868 a 35.178299,35.178299 0 0 1 35.17878,35.177433 35.178299,35.178299 0 0 1 -35.17878,35.17878 35.178299,35.178299 0 0 1 -35.17743,-35.17878 35.178299,35.178299 0 0 1 35.17743,-35.177433 z m 0.2428,1.41519 a 34.869235,33.749739 0.4 0 0 -35.10366,33.504703 34.869235,33.749739 0.4 0 0 34.63282,33.99295 34.869235,33.749739 0.4 0 0 35.10367,-33.50603 34.869235,33.749739 0.4 0 0 -34.63283,-33.991623 z m -98.64814,4.31938 c 0.0366,0 0.0734,0.0593 0.10999,0.17841 0.0366,0.13278 0.0366,0.26562 0,0.39841 -0.60309,2.12909 -1.13642,4.26382 -1.60032,6.40259 -0.92778,4.27749 -1.57892,8.56988 -1.96115,12.856193 -0.19112,2.14309 -0.31535,4.28487 -0.37292,6.42273 -0.0575,2.13786 -0.0487,4.27235 0.0254,6.39992 0.14826,4.25505 0.55832,8.48447 1.22203,12.66839 0.66371,4.184 1.58178,8.32181 2.74589,12.39474 v 0.002 c 0.58196,2.03605 1.22613,4.05571 1.93031,6.05652 v 0.002 c 0.70421,2.0008 1.46927,3.98326 2.29382,5.94384 0.82474,1.96097 1.70876,3.90068 2.652,5.8164 0.94325,1.91572 1.94491,3.80746 3.00478,5.67287 1.05989,1.86549 2.17893,3.70434 3.35356,5.51459 1.17464,1.81025 2.40542,3.5915 3.69293,5.34154 v 0.002 c 1.28733,1.74974 2.63135,3.46785 4.02963,5.1524 0.0641,0.0779 0.1461,0.13082 0.24683,0.15829 0.0778,0.0183 0.12867,0.0593 0.15158,0.12341 0.11169,0.24207 -0.22312,0.43678 -0.37828,0.22 -1.4674,-1.67606 -2.8723,-3.38537 -4.21744,-5.12558 -0.0279,-0.0361 -0.0552,-0.0725 -0.0831,-0.10865 -1.34187,-1.74055 -2.62451,-3.51076 -3.84317,-5.31069 v -0.002 c -1.2178,-1.7987 -2.3725,-3.62639 -3.46624,-5.47971 -0.0247,-0.042 -0.0491,-0.0841 -0.0738,-0.1261 -1.07815,-1.83285 -2.09578,-3.69199 -3.05173,-5.5736 -0.0225,-0.0444 -0.046,-0.0884 -0.0684,-0.1328 -0.964,-1.90438 -1.86637,-3.83188 -2.7043,-5.78153 -0.8374,-1.94841 -1.6102,-3.91866 -2.32067,-5.90762 -0.0176,-0.0495 -0.0347,-0.0993 -0.0523,-0.1489 -0.70719,-1.9897 -1.35241,-3.99738 -1.93165,-6.02298 -0.58649,-2.05099 -1.10716,-4.11967 -1.56142,-6.20273 -0.45425,-2.08307 -0.84206,-4.18089 -1.16301,-6.29127 -0.32095,-2.11031 -0.57536,-4.23346 -0.76192,-6.36639 -0.18658,-2.13293 -0.3057,-4.27603 -0.35683,-6.42675 -0.0511,-2.15072 -0.0345,-4.30862 0.051,-6.47236 0.0854,-2.16374 0.23981,-4.33264 0.46279,-6.50455 0.22298,-2.172 0.51566,-4.347863 0.8773,-6.523343 0.36156,-2.17505 0.79188,-4.35089 1.29313,-6.52467 v -0.002 c 0.50135,-2.17421 1.07351,-4.34579 1.71567,-6.51395 0.0366,-0.11905 0.0734,-0.17841 0.10999,-0.17841 z m 197.54982,2.43468 c 0.0344,0.009 0.0609,0.0463 0.0791,0.11268 0.60681,2.1495 1.14129,4.30327 1.60434,6.45761 0.002,0.006 0.003,0.0126 0.004,0.0188 0.002,0.005 0.002,0.0108 0.003,0.0161 0.46265,2.15606 0.85457,4.31228 1.17508,6.46834 0.32077,2.157763 0.56963,4.315503 0.74986,6.468343 2.2e-4,0.003 0.002,0.005 0.002,0.008 1.4e-4,0.002 -1.5e-4,0.004 0,0.005 0.18008,2.15463 0.29152,4.3047 0.33267,6.44956 0.0412,2.14574 0.0129,4.28633 -0.0831,6.41735 v 0.002 c -0.0961,2.13103 -0.2609,4.25362 -0.49231,6.36505 v 0.002 c -0.23148,2.11186 -0.52968,4.21197 -0.89473,6.29931 -0.36503,2.08736 -0.79638,4.16088 -1.29313,6.21883 -0.49675,2.05791 -1.05954,4.09998 -1.68617,6.12359 -0.619,1.9991 -1.3017,3.98033 -2.04566,5.94116 -0.0183,0.0482 -0.0366,0.0966 -0.055,0.14488 -0.74697,1.95977 -1.55523,3.89968 -2.42529,5.8164 -0.88064,1.94005 -1.82414,3.8569 -2.82906,5.748 v 0.002 c -1.00494,1.89104 -2.07196,3.75648 -3.19929,5.59373 v 0.002 c -1.1276,1.83757 -2.31592,3.6459 -3.56415,5.42472 -1.24823,1.77876 -2.55666,3.5271 -3.92366,5.24227 -1.36701,1.71516 -2.79252,3.39712 -4.27645,5.04374 -0.24268,0.27015 -0.4575,0.49057 -0.64523,0.65999 -0.0372,0.0304 -0.0903,0.0315 -0.12877,0.003 -0.007,-0.005 -0.0134,-0.0117 -0.0188,-0.0188 -0.0309,-0.0368 -0.0324,-0.09 -0.004,-0.12877 1.21779,-1.40151 2.39488,-2.81946 3.53061,-4.25364 1.13552,-1.43391 2.23057,-2.88424 3.28381,-4.35024 v -0.002 c 1.05343,-1.46634 2.06475,-2.94756 3.03563,-4.44547 0.97089,-1.49795 1.90073,-3.01167 2.78882,-4.54071 0.87264,-1.50247 1.70392,-3.02081 2.49637,-4.55279 0.0284,-0.0549 0.0561,-0.11006 0.0845,-0.165 0.78923,-1.53233 1.5407,-3.07867 2.24957,-4.63998 0.70845,-1.56039 1.37478,-3.13566 2.00274,-4.72449 0.0233,-0.0589 0.0466,-0.11804 0.0698,-0.17706 0.62502,-1.59003 1.21164,-3.19374 1.75591,-4.81167 v -0.002 c 0.5544,-1.64811 1.06691,-3.30952 1.53728,-4.98607 0.47034,-1.67655 0.89902,-3.36749 1.28507,-5.07191 0.37862,-1.67163 0.71412,-3.35786 1.01143,-5.05582 0.0117,-0.067 0.0233,-0.13413 0.0349,-0.20122 0.29404,-1.69864 0.54942,-3.40914 0.76193,-5.13361 0.21673,-1.7587 0.39146,-3.53109 0.52316,-5.31606 0.13169,-1.78502 0.22053,-3.58305 0.26694,-5.39386 0.0465,-1.8108 0.0499,-3.63428 0.0107,-5.4703 -0.0392,-1.83609 -0.12056,-3.6847 -0.24547,-5.54544 -0.10074,-1.5041 -0.23967,-3.00027 -0.41719,-4.489743 v -0.002 c -0.17748,-1.48899 -0.39373,-2.97102 -0.6479,-4.44547 -0.25424,-1.47489 -0.54639,-2.94226 -0.87729,-4.40255 v -0.002 c -0.33084,-1.45988 -0.70063,-2.91303 -1.10802,-4.35828 -0.0366,-0.13279 -0.0182,-0.23661 0.055,-0.30988 0.0503,-0.0481 0.0932,-0.0667 0.12745,-0.0577 z m -99.14448,10.9232 a 16.08504,16.08504 0 0 1 16.08499,16.084983 16.08504,16.08504 0 0 1 -16.08499,16.08499 16.08504,16.08504 0 0 1 -16.08497,-16.08499 16.08504,16.08504 0 0 1 16.08497,-16.084983 z m 66.09051,9.372513 c 0.65558,0.005 1.31469,0.0627 1.97323,0.16365 0.0614,0.01 0.12241,0.0192 0.18377,0.0295 0.66029,0.11048 1.31988,0.26444 1.97591,0.47755 0.65681,0.21336 1.30985,0.48588 1.9558,0.80754 0.0561,0.028 0.11165,0.0571 0.16768,0.0858 0.64522,0.33161 1.28443,0.71163 1.91152,1.15765 a 0.07554887,0.07554887 0 0 1 -0.0214,0.13146 c -0.0641,0.0183 -0.12772,0.0389 -0.19182,0.0617 -0.0458,0.0137 -0.089,0.01 -0.13012,-0.0134 -0.61148,-0.35156 -1.22833,-0.64782 -1.84848,-0.89339 -0.004,-0.002 -0.009,-0.005 -0.0134,-0.007 h -0.002 c -0.004,-0.002 -0.007,-0.003 -0.0107,-0.004 -0.61764,-0.24313 -1.23833,-0.43534 -1.85921,-0.5795 -0.004,-7.3e-4 -0.006,-0.002 -0.01,-0.003 h -0.002 c -0.002,-4.2e-4 -0.004,-8.6e-4 -0.005,-0.002 -1.88198,-0.43439 -3.76771,-0.42846 -5.583,-0.0658 -0.60582,0.12106 -1.20317,0.28151 -1.79081,0.47889 -0.58762,0.19737 -1.16504,0.43147 -1.72909,0.69888 -0.56404,0.26745 -1.11486,0.56881 -1.64994,0.9001 -1.07016,0.66255 -2.07742,1.44695 -2.99942,2.32736 -0.46077,0.43999 -0.90025,0.90331 -1.31593,1.38837 v 0.002 c -0.41565,0.48507 -0.80856,0.99058 -1.17375,1.51447 v 0.002 c -0.3618,0.5191 -0.6977,1.05591 -1.00472,1.60703 -0.003,0.005 -0.005,0.01 -0.008,0.0147 -0.004,0.007 -0.007,0.0134 -0.0107,0.0202 -0.30522,0.55065 -0.58232,1.11513 -0.82766,1.69153 v 0.002 c -0.24423,0.57393 -0.45612,1.15974 -0.63583,1.75323 -0.003,0.009 -0.007,0.0177 -0.01,0.0268 -0.004,0.0106 -0.005,0.0216 -0.008,0.0322 -0.17732,0.59353 -0.323,1.19461 -0.43059,1.80152 -0.33425,1.88416 -0.74879,3.71573 -1.2435,5.49581 -0.49471,1.78013 -1.06988,3.50851 -1.72507,5.18459 -0.65519,1.67611 -1.38965,3.29999 -2.2053,4.87205 -0.81175,1.56456 -1.7041,3.07654 -2.6748,4.53802 -0.004,0.007 -0.009,0.0145 -0.0133,0.0214 v 0.002 c -0.005,0.008 -0.0122,0.0148 -0.0174,0.0228 -0.97153,1.4592 -2.0208,2.86778 -3.151,4.22413 -1.1366,1.36403 -2.35428,2.67706 -3.65135,3.93707 -1.29706,1.26 -2.67407,2.46719 -4.13157,3.62318 -1.45754,1.15599 -2.99515,2.26 -4.61315,3.31197 -0.2318,0.14998 -0.43275,0.37624 -0.60364,0.67742 -8.6e-4,0.003 -0.003,0.004 -0.004,0.005 v 0.002 c -8.4e-4,0.002 -0.002,0.004 -0.003,0.005 -0.17032,0.30362 -0.31063,0.68242 -0.41987,1.13752 -0.38461,1.60885 -0.71908,3.06852 -0.95911,4.45486 -0.24004,1.38634 -0.38577,2.69976 -0.39304,4.01622 -0.004,0.65823 0.0268,1.31726 0.0979,1.98665 0.071,0.66938 0.18252,1.34874 0.33938,2.04835 0.15686,0.6996 0.3594,1.41882 0.61304,2.16774 v 0.002 c 0.25355,0.74857 0.55895,1.52657 0.92021,2.34346 0.0221,0.0486 0.0289,0.0742 0.0254,0.0791 -0.005,0.003 -0.0224,-0.0152 -0.0537,-0.0577 -0.52884,-0.7117 -0.98719,-1.45328 -1.37898,-2.21736 -0.39179,-0.76413 -0.71659,-1.5514 -0.97923,-2.35554 -0.26266,-0.80416 -0.46356,-1.62432 -0.60499,-2.45614 -0.14142,-0.83183 -0.22407,-1.67474 -0.25219,-2.52188 -0.0276,-0.83244 -4.2e-4,-1.66906 0.0738,-2.50443 0.003,-0.0319 0.006,-0.0634 0.01,-0.0953 0.0775,-0.83068 0.20103,-1.66004 0.37157,-2.48163 4.8e-4,-0.003 8.6e-4,-0.004 0.002,-0.007 v -0.002 c 7.5e-4,-0.004 0.002,-0.007 0.003,-0.0107 0.1704,-0.81746 0.38738,-1.62701 0.64255,-2.42395 0.0128,-0.0399 0.0259,-0.0795 0.0389,-0.11938 0.25961,-0.79687 0.55641,-1.58188 0.89338,-2.34615 0.0916,-0.20605 0.23427,-0.37003 0.42658,-0.49365 1.5653,-1.02048 3.05543,-2.0908 4.47096,-3.21002 1.41552,-1.11923 2.75586,-2.28719 4.02157,-3.50514 1.2572,-1.20977 2.44,-2.46891 3.54941,-3.7761 0.008,-0.009 0.0167,-0.0167 0.0242,-0.0254 v -0.002 c 0.007,-0.008 0.0122,-0.0164 0.0188,-0.0242 1.10813,-1.30924 2.14387,-2.66715 3.10403,-4.07391 0.96589,-1.41512 1.85731,-2.87937 2.67346,-4.39315 v -0.002 c 0.8163,-1.51416 1.55759,-3.07675 2.22409,-4.6896 0.66648,-1.61289 1.25801,-3.27581 1.77469,-4.98741 0.51668,-1.71159 0.95845,-3.47223 1.32532,-5.28252 0.2816,-1.40108 0.5697,-2.603 0.86389,-3.60574 0.29418,-1.00274 0.59465,-1.80613 0.90142,-2.41053 0.32962,-0.64866 0.70571,-1.26428 1.10265,-1.86323 0.11609,-0.17522 0.23806,-0.34314 0.3595,-0.51377 0.31705,-0.44543 0.65066,-0.874 1.00204,-1.28642 0.12209,-0.1433 0.2389,-0.29016 0.36487,-0.42926 0.46985,-0.5189 0.96148,-1.01198 1.48093,-1.46886 0.0994,-0.0875 0.2061,-0.16311 0.30718,-0.24816 0.43727,-0.36789 0.88884,-0.71184 1.35485,-1.0329 0.17163,-0.11827 0.34396,-0.23179 0.51913,-0.34339 0.47566,-0.3031 0.96177,-0.58125 1.46081,-0.83304 0.11687,-0.0589 0.22939,-0.12637 0.34742,-0.18243 0.63694,-0.30248 1.29023,-0.56192 1.95579,-0.77534 0.0493,-0.0158 0.0981,-0.0317 0.14756,-0.047 0.68079,-0.21074 1.37358,-0.37494 2.07518,-0.4856 0.0366,-0.006 0.0733,-0.0106 0.11,-0.0161 0.72156,-0.10811 1.44984,-0.16629 2.18383,-0.16097 z m -131.61627,0.35816 c 0.64737,0.004 1.29015,0.0704 1.93031,0.16499 0.18333,0.0271 0.36479,0.0625 0.5473,0.0966 0.4881,0.0912 0.97207,0.20707 1.45276,0.3461 0.16283,0.0471 0.32646,0.0858 0.48828,0.13815 0.61149,0.19765 1.21531,0.42735 1.80957,0.69487 0.12885,0.0581 0.25305,0.12807 0.38097,0.18914 0.47979,0.22907 0.95274,0.47734 1.41788,0.74717 0.18047,0.10468 0.35855,0.21152 0.53657,0.32194 0.46945,0.29115 0.92966,0.60025 1.38032,0.92826 0.0984,0.0716 0.20034,0.13598 0.29779,0.20926 0.53689,0.4037 1.05526,0.8347 1.56007,1.28375 0.14662,0.1304 0.28692,0.26591 0.43061,0.39973 0.37695,0.3511 0.74325,0.71146 1.09863,1.08388 0.14126,0.14804 0.28221,0.2943 0.41985,0.44535 0.45728,0.50181 0.90155,1.0138 1.31593,1.54398 0.13279,0.17399 0.20839,0.36832 0.22671,0.58351 0.14938,1.87497 0.37738,3.7062 0.68412,5.49313 0.30675,1.78693 0.69218,3.52999 1.15631,5.22886 0.46413,1.69887 1.00697,3.35378 1.62849,4.96461 0.62151,1.61078 1.32176,3.17758 2.10066,4.70034 0.77891,1.52271 1.63655,3.0014 2.57285,4.43607 0.9363,1.43468 1.95133,2.82522 3.04503,4.17182 1.09369,1.34661 2.26613,2.64904 3.51721,3.90757 1.2511,1.25851 2.58087,2.47287 3.98938,3.64329 1.03021,0.85623 1.89861,1.6374 2.60369,2.34481 0.70513,0.70741 1.24712,1.34085 1.62716,1.89945 0.43437,0.6396 0.84051,1.32106 1.2113,2.03494 0.37078,0.71389 0.70607,1.46 0.99801,2.2281 0.29195,0.7681 0.54123,1.55869 0.73913,2.3609 0.19735,0.79998 0.34323,1.61267 0.43194,2.42664 1.9e-4,0.002 8.5e-4,0.004 0.002,0.005 1e-4,8.5e-4 -9e-5,0.002 0,0.003 0.0886,0.81579 0.11898,1.63302 0.0831,2.44273 -0.10749,2.43046 -0.80974,4.78829 -2.31128,6.80236 -0.38431,0.51547 -0.59692,0.75462 -0.64119,0.72302 -4.9e-4,-3.4e-4 0.002,-0.005 0.002,-0.005 -0.0391,-0.0361 0.0802,-0.32525 0.35681,-0.86924 0.006,-0.0125 0.002,-0.008 0.008,-0.0202 0.71213,-1.39337 1.15343,-2.83059 1.3602,-4.2778 0.0689,-0.48239 0.11182,-0.96527 0.13011,-1.44873 0.0366,-0.96699 -0.0252,-1.93418 -0.17437,-2.89078 -0.14922,-0.95654 -0.386,-1.90247 -0.69889,-2.82905 -0.31288,-0.92658 -0.70193,-1.83405 -1.15631,-2.71101 -0.4544,-0.87696 -0.97421,-1.72354 -1.548,-2.53127 -0.57377,-0.80772 -1.20163,-1.5763 -1.87262,-2.29517 -0.67099,-0.71885 -1.38549,-1.38832 -2.13152,-1.99871 -1.42709,-1.16893 -2.77301,-2.38265 -4.04035,-3.64197 -1.2669,-1.25886 -2.45555,-2.5624 -3.56282,-3.91158 v -0.002 c -1.10722,-1.34917 -2.13499,-2.74305 -3.0826,-4.18255 -0.94778,-1.43977 -1.81558,-2.92475 -2.6037,-4.45485 -0.7881,-1.53017 -1.49638,-3.10538 -2.1248,-4.72585 -0.62642,-1.61531 -1.17281,-3.27694 -1.64057,-4.98203 -0.002,-0.005 -0.004,-0.0105 -0.005,-0.0161 -8.6e-4,-0.004 -0.002,-0.007 -0.003,-0.0107 -0.93587,-3.41857 -1.55271,-7.01654 -1.85116,-10.79577 -0.0183,-0.22893 -0.0995,-0.43525 -0.24146,-0.61839 -0.58979,-0.78552 -1.24809,-1.551 -1.96384,-2.28041 -0.71575,-0.72939 -1.48878,-1.42318 -2.30724,-2.0658 -0.81819,-0.64238 -1.68195,-1.23363 -2.57956,-1.7586 h -0.002 c -0.89792,-0.52507 -1.82922,-0.98463 -2.78344,-1.36154 -0.95382,-0.37676 -1.93078,-0.67123 -2.9176,-0.86923 h -0.002 c -0.49363,-0.099 -0.98878,-0.17416 -1.4863,-0.22269 -0.99506,-0.097 -1.99545,-0.089 -2.9887,0.0389 -0.48308,0.0623 -0.96475,0.15418 -1.44336,0.275 -0.0255,0.007 -0.051,0.0135 -0.0765,0.0202 -0.47499,0.12318 -0.94744,0.27543 -1.4152,0.4601 -0.01,0.004 -0.0189,0.007 -0.0283,0.0107 -0.47905,0.19048 -0.95326,0.41331 -1.4219,0.67205 -0.0733,0.0412 -0.15311,0.0434 -0.24012,0.007 -0.11447,-0.0412 -0.12084,-0.0985 -0.0202,-0.1717 0.61053,-0.42881 1.22695,-0.79157 1.84848,-1.10533 0.055,-0.0278 0.10993,-0.055 0.16499,-0.0818 0.61996,-0.3028 1.24366,-0.55762 1.86994,-0.75389 h 0.002 c 0.62901,-0.19704 1.26027,-0.33657 1.89141,-0.43328 0.0545,-0.009 0.10909,-0.0152 0.16365,-0.0228 0.62885,-0.0881 1.25832,-0.13537 1.8847,-0.13146 z m -0.20524,3.47562 c 0.39287,0.008 0.79149,0.0431 1.19252,0.0966 0.11842,0.0158 0.23781,0.0404 0.35682,0.0603 0.29009,0.0486 0.58135,0.10881 0.87461,0.18243 0.13401,0.0336 0.26786,0.0697 0.40244,0.10866 0.29592,0.0857 0.59253,0.18713 0.89069,0.29913 0.11993,0.045 0.2393,0.0849 0.35951,0.13414 0.41544,0.17065 0.8325,0.36119 1.2502,0.58487 h 0.002 c 0.41172,0.22054 0.82321,0.47457 1.23543,0.7485 0.13349,0.0887 0.26635,0.18863 0.39976,0.28305 0.28907,0.20457 0.57825,0.42 0.86656,0.65193 0.14246,0.11459 0.2844,0.23274 0.42657,0.35413 0.29565,0.25246 0.5901,0.52251 0.884,0.80486 0.11991,0.11519 0.23996,0.22449 0.35949,0.34474 0.41316,0.41558 0.82383,0.85212 1.23143,1.32935 0.14652,0.174 0.23198,0.37605 0.25487,0.60498 0.19287,1.93106 0.46351,3.81786 0.81289,5.65946 0.3494,1.84165 0.77783,3.6376 1.28375,5.38983 0.50592,1.75223 1.08945,3.46012 1.75189,5.12289 0.66246,1.66281 1.40376,3.28126 2.22275,4.8546 0.81897,1.5734 1.7167,3.10236 2.69223,4.58633 0.96955,1.47487 2.01742,2.9047 3.14161,4.2912 0.007,0.009 0.0121,0.0172 0.0188,0.0254 0.008,0.01 0.0164,0.0186 0.0242,0.0282 1.12558,1.38468 2.32707,2.72515 3.60707,4.02158 1.28862,1.30508 2.65558,2.56584 4.10074,3.78147 1.0718,0.90004 1.96248,1.71278 2.67346,2.43871 0.71041,0.72539 1.24211,1.36401 1.59226,1.91554 1.32897,2.0982 2.09642,4.30345 2.32469,6.4214 0.11412,1.05894 0.094,2.09612 -0.059,3.0866 -0.15303,0.99051 -0.43831,1.93449 -0.85313,2.80759 -0.41489,0.87307 -0.95985,1.67563 -1.63117,2.38237 -1.67818,1.76667 -4.15004,2.93719 -7.37246,3.12953 -0.64463,0.0384 -1.3198,0.0375 -2.02421,-0.005 -0.15568,-0.009 -0.16553,0.0233 -0.0282,0.0966 7.77804,4.28177 16.04232,7.1964 24.49436,8.79168 3.38082,0.63812 6.79148,1.06458 10.21359,1.28374 6.84369,0.43829 13.73249,0.0449 20.51301,-1.15496 0.29148,-0.0516 0.57951,-0.12653 0.87058,-0.18111 3.09502,-0.58014 6.16939,-1.30692 9.20215,-2.22138 3.31719,-1.00023 6.58871,-2.19947 9.79507,-3.59367 1.6033,-0.6972 3.19091,-1.44299 4.75936,-2.23749 0.19633,-0.0982 0.2885,-0.17797 0.27766,-0.23743 -0.0114,-0.0594 -0.12636,-0.0988 -0.34608,-0.11939 -2.01277,-0.188 -3.74659,-0.60089 -5.21411,-1.20997 -0.48916,-0.20298 -0.94871,-0.42766 -1.37897,-0.67338 -0.86092,-0.49164 -1.60443,-1.06672 -2.2348,-1.71702 -0.31489,-0.32475 -0.60254,-0.66761 -0.86121,-1.02887 v -0.002 c -0.51738,-0.72282 -0.9232,-1.51627 -1.22068,-2.37298 v -0.002 c -0.14863,-0.42814 -0.26989,-0.87212 -0.36488,-1.33069 v -0.002 c -0.095,-0.45903 -0.16444,-0.93184 -0.20657,-1.41922 -0.1264,-1.4623 -0.0163,-3.04874 0.31792,-4.72985 0.22278,-1.12078 0.54552,-2.28337 0.96447,-3.48099 0.0779,-0.22436 0.21494,-0.40166 0.41183,-0.52986 2.6201,-1.74558 5.04188,-3.64089 7.26513,-5.6863 1.11164,-1.02272 2.17348,-2.0828 3.18588,-3.18049 1.01241,-1.09771 1.9749,-2.23322 2.88808,-3.40588 0.90609,-1.16356 1.76311,-2.36434 2.57151,-3.60172 0.006,-0.01 0.0138,-0.0185 0.0202,-0.0282 v -0.002 c 0.006,-0.009 0.0114,-0.0189 0.0174,-0.0281 0.80698,-1.23869 1.56579,-2.51456 2.27505,-3.82708 0.7147,-1.32263 1.3792,-2.68164 1.99469,-4.07926 l 0.002,-0.002 c 0.61548,-1.39765 1.18064,-2.83201 1.6969,-4.30462 0.30463,-0.86928 0.56191,-1.76726 0.79411,-2.67882 v -0.002 c 0.69678,-2.73551 1.17288,-5.59915 2.06177,-8.21486 v -0.002 c 0.29642,-0.87203 0.63873,-1.71612 1.05033,-2.51918 0.61743,-1.20457 1.39118,-2.3153 2.39981,-3.28648 1.00862,-0.9712 2.25278,-1.80288 3.81098,-2.44676 2.12052,-0.87569 4.02662,-1.1635 5.71177,-0.97656 0.84254,0.0934 1.63015,0.30557 2.36091,0.62241 0.57776,0.25052 1.10962,0.58339 1.6164,0.95779 0.1342,0.0991 0.27594,0.18522 0.40512,0.29242 0.30883,0.25625 0.60268,0.53453 0.88265,0.83436 0.27971,0.29957 0.54485,0.61955 0.79546,0.95912 l 0.002,0.002 c 1.0007,1.35556 1.7671,3.01632 2.29518,4.86935 8.5e-4,0.004 0.004,0.006 0.004,0.01 8.5e-4,0.003 4.9e-4,0.006 0.002,0.01 0.26302,0.92647 0.46688,1.89967 0.609,2.90821 0.15626,1.11606 0.212,2.32801 0.18377,3.59098 -0.0564,2.52591 -0.44899,5.25745 -1.04631,7.83658 -0.29865,1.2896 -0.64827,2.54109 -1.03289,3.71038 -1.22938,3.73047 -2.68905,7.30503 -4.37973,10.72332 -0.84535,1.70911 -1.74905,3.37911 -2.70968,5.01021 -0.96066,1.6311 -1.97843,3.22246 -3.05442,4.77546 -1.076,1.55304 -2.20917,3.06711 -3.4005,4.54205 -1.19132,1.475 -2.44132,2.91171 -3.74793,4.30865 -1.30665,1.39694 -2.6707,2.75501 -4.09268,4.0739 -1.42198,1.31888 -2.90145,2.59832 -4.43876,3.83915 -0.66964,0.54258 -1.42143,0.92617 -2.1503,1.273 -0.72897,0.34695 -1.43522,0.65736 -2.01214,1.05571 -1.60794,1.1139 -3.24484,2.16078 -4.90826,3.1416 -1.66342,0.98082 -3.35331,1.89563 -5.06521,2.74321 -1.7119,0.84759 -3.44596,1.62792 -5.19934,2.34212 -1.75343,0.71421 -3.5254,1.36171 -5.31338,1.94238 h -0.002 c -1.78759,0.58051 -3.59077,1.0944 -5.40594,1.54129 h -0.002 c -1.81516,0.44687 -3.64262,0.82711 -5.47836,1.14022 -1.83622,0.31316 -3.68078,0.55993 -5.53069,0.73911 h -0.002 c -1.84946,0.17913 -3.70404,0.29164 -5.56018,0.3367 h -0.002 c -3.71278,0.09 -7.43314,-0.0881 -11.13112,-0.53523 -1.8492,-0.2236 -3.69293,-0.51507 -5.528,-0.87326 -3.6632,-0.71502 -7.2908,-1.69897 -10.85611,-2.95112 -0.007,-0.003 -0.0135,-0.004 -0.0202,-0.007 h -0.002 c -0.008,-0.003 -0.0151,-0.007 -0.0228,-0.01 -1.77761,-0.62549 -3.53964,-1.31589 -5.28253,-2.07517 l -0.002,-0.002 c -1.75031,-0.76256 -3.48163,-1.59205 -5.18997,-2.48968 l -0.002,-0.002 c -1.69775,-0.89212 -3.37284,-1.85168 -5.02228,-2.87734 -0.0102,-0.006 -0.0206,-0.0124 -0.0309,-0.0188 h -0.002 c -1.33583,-0.83103 -2.78167,-1.76525 -4.26974,-2.77808 -1.48823,-1.01283 -3.0188,-2.10453 -4.52463,-3.24893 -2.25897,-1.71675 -4.46039,-3.55314 -6.37979,-5.42471 -0.63972,-0.62378 -1.24797,-1.25091 -1.8163,-1.87932 -2.41069,-2.66139 -4.61303,-5.43467 -6.60649,-8.3195 -1.99346,-2.88488 -3.77877,-5.88054 -5.35495,-8.98887 -3.15246,-6.21675 -5.47047,-12.8805 -6.95394,-19.99121 -0.11466,-0.55 -0.19696,-1.09257 -0.26291,-1.63117 -0.0189,-0.15429 -0.032,-0.30686 -0.047,-0.46011 -0.0285,-0.29031 -0.0416,-0.57496 -0.0563,-0.86118 -0.035,-0.67632 -0.0394,-1.34213 -0.002,-1.99202 0.005,-0.0854 0.002,-0.17389 0.008,-0.25889 0.0531,-0.72557 0.15973,-1.42666 0.29779,-2.1114 0.0344,-0.17033 0.0746,-0.33549 0.11402,-0.50303 0.13288,-0.56594 0.29275,-1.11463 0.48024,-1.64593 0.0432,-0.12227 0.0788,-0.24859 0.12475,-0.36888 0.23428,-0.61397 0.50503,-1.19872 0.80753,-1.75727 0.0739,-0.13658 0.15562,-0.26404 0.23341,-0.39705 0.26342,-0.4504 0.54664,-0.87941 0.85181,-1.28643 0.0852,-0.11353 0.16534,-0.23075 0.25352,-0.34073 0.38359,-0.47841 0.79371,-0.92397 1.23143,-1.33069 0.0887,-0.0824 0.18419,-0.15272 0.27499,-0.23205 0.37413,-0.32694 0.76416,-0.6259 1.17105,-0.89742 0.16158,-0.10784 0.31928,-0.2206 0.4856,-0.31926 0.10656,-0.0632 0.21352,-0.12439 0.32194,-0.18378 0.29652,-0.16228 0.59982,-0.31006 0.90949,-0.44266 0.0641,-0.0275 0.12587,-0.0597 0.19049,-0.0858 0.37265,-0.15073 0.75518,-0.27642 1.14422,-0.38231 0.10449,-0.0285 0.21099,-0.0501 0.31658,-0.0751 0.30144,-0.0716 0.6066,-0.12934 0.91618,-0.17305 0.11925,-0.0168 0.23781,-0.0344 0.35817,-0.047 0.41038,-0.043 0.82424,-0.0697 1.24617,-0.0617 z m 79.89239,1.65934 a 0.08987741,0.08987741 0 0 0 -0.0537,0.0724 c -3.37222,16.44903 -24.66321,16.84791 -28.10413,0.54999 a 0.13814886,0.13814886 0 0 0 -0.27499,0.0268 c -0.11676,19.87621 29.35423,19.30577 28.55753,-0.55669 a 0.08987741,0.08987741 0 0 0 -0.12476,-0.0926 z m -67.35948,89.44332 c 0.0412,0.0123 0.0962,0.0391 0.16365,0.0791 1.95611,1.15426 3.9401,2.23979 5.94921,3.25563 2.0091,1.01575 4.0427,1.96228 6.09811,2.83979 2.0553,0.87751 4.13196,1.686 6.22687,2.42528 2.09498,0.73929 4.20901,1.40971 6.33688,2.01079 2.12778,0.60119 4.27,1.13314 6.42405,1.5963 2.15406,0.46316 4.31895,0.85652 6.49249,1.1818 2.17346,0.32526 4.35578,0.58249 6.54212,0.76997 2.18625,0.18748 4.37795,0.30568 6.57027,0.35548 2.19243,0.0498 4.38528,0.0301 6.577,-0.0577 2.1918,-0.0878 4.38177,-0.24424 6.56625,-0.46949 2.18449,-0.22526 4.36368,-0.5187 6.53407,-0.88132 2.17048,-0.36262 4.33334,-0.79326 6.48309,-1.29313 2.14968,-0.49979 4.28697,-1.06927 6.40931,-1.70629 2.12226,-0.63701 4.22986,-1.34271 6.3181,-2.11676 2.08814,-0.77406 4.15666,-1.61625 6.20408,-2.52724 2.04741,-0.91099 4.0727,-1.8899 6.07261,-2.93771 0.1694,-0.087 0.30997,-0.10746 0.41986,-0.0617 0.14195,0.0595 0.14392,0.12527 0.007,0.19852 -2.02908,1.1207 -4.08071,2.16721 -6.15175,3.14028 -2.07104,0.97306 -4.16156,1.87326 -6.26846,2.69893 -2.10697,0.82568 -4.23085,1.57766 -6.36774,2.25628 -2.13689,0.67853 -4.28742,1.28306 -6.44821,1.81494 -2.16078,0.53188 -4.33125,0.99084 -6.50992,1.3763 -2.17857,0.38545 -4.36501,0.69828 -6.55552,0.93764 -2.19044,0.23938 -4.38609,0.40542 -6.58236,0.49902 -2.19635,0.0936 -4.39424,0.11487 -6.59041,0.063 -2.19608,-0.0518 -4.38977,-0.17732 -6.57967,-0.37427 -2.18998,-0.19694 -4.37652,-0.46579 -6.55418,-0.80753 -2.17776,-0.34174 -4.34782,-0.75597 -6.50724,-1.24215 -2.1595,-0.4862 -4.3076,-1.04377 -6.44285,-1.67409 -2.13524,-0.63035 -4.25748,-1.33324 -6.36236,-2.10738 -2.10497,-0.77414 -4.19309,-1.62033 -6.26175,-2.53798 -2.06868,-0.91755 -4.11746,-1.90643 -6.14371,-2.96722 -2.02635,-1.06078 -4.03023,-2.19285 -6.00823,-3.39647 -0.0319,-0.0182 -0.0582,-0.0446 -0.0765,-0.0765 -0.0755,-0.14194 -0.0982,-0.22798 -0.0684,-0.2589 0.0149,-0.0154 0.0433,-0.0174 0.0845,-0.005 z"
     style="fill:#ffca28;fill-opacity:1;stroke-width:0.686807" />
</svg>
