<?xml version="1.0" encoding="utf-8"?>
<!-- Generator: Adobe Illustrator 23.0.2, SVG Export Plug-In . SVG Version: 6.00 Build 0)  -->
<svg version="1.1"
	 id="svg238" xmlns:inkscape="http://www.inkscape.org/namespaces/inkscape" xmlns:sodipodi="http://sodipodi.sourceforge.net/DTD/sodipodi-0.dtd" xmlns:svg="http://www.w3.org/2000/svg"
	 xmlns="http://www.w3.org/2000/svg" xmlns:xlink="http://www.w3.org/1999/xlink" x="0px" y="0px" viewBox="0 0 1004 222"
	 style="enable-background:new 0 0 1004 222;" xml:space="preserve">
<style type="text/css">
	.st0{fill:#FFFFFF;}
	.st1{fill:#FFCA28;}
</style>
<sodipodi:namedview  bordercolor="#000000" borderopacity="0.25" id="namedview240" inkscape:current-layer="svg238" inkscape:cx="436.94379" inkscape:cy="198.43736" inkscape:deskcolor="#d1d1d1" inkscape:pagecheckerboard="0" inkscape:pageopacity="0.0" inkscape:showpageshadow="2" inkscape:window-height="1286" inkscape:window-maximized="0" inkscape:window-width="2056" inkscape:window-x="0" inkscape:window-y="43" inkscape:zoom="1.3102372" pagecolor="#ffffff" showgrid="false" showguides="true">
	</sodipodi:namedview>
<path id="rect1696-4" class="st0" d="M414,5.5h19.2c2,0,3.6,1.6,3.6,3.6v158.4c0,2-1.6,3.6-3.6,3.6H414c-2,0-3.6-1.6-3.6-3.6V9.1
	C410.4,7.1,412,5.5,414,5.5z"/>
<path id="path1698-0" sodipodi:nodetypes="ccscccccccccccccccccccc" class="st0" d="M499.3,126.2v88.7c0,1.5-1.6,2.3-4,2.8
	c-5.7,1.2-15.7,0.6-19.8,0.3c-1.7-0.1-3.5-1.4-3.5-3c0-52.4,0-104.8,0.1-157.3c0-20,10.9-39.7,29.8-47.4c15.2-6.2,33.3-4.3,49.8-4.3
	c1.3,0,2.4,1.1,2.4,2.4l0.2,20.3c0,1.5-1.2,2.7-2.7,2.7c-9.3,0-18.6,0-28,0c-2.1,0-3.6,0.8-5.7,1.1c-12,1.9-18.5,17.2-18.6,27.8
	c-0.1,12.6-0.1,25.2,0,37.7c0,1.3,1,2.3,2.3,2.3l44.3-0.2c1.1,0,1.9,0.8,2,1.9c0.3,6.4,0.1,12.9,0.4,19.4c0.1,2.7-1.2,4-3.9,4
	c-14.9,0.1-29.7,0.1-44.6,0.1C499.4,125.7,499.3,125.9,499.3,126.2L499.3,126.2z"/>
<path id="rect1700-4" class="st0" d="M580.6,6.1h18c2.4,0,4.3,1.9,4.3,4.3v203c0,2.4-1.9,4.3-4.3,4.3h-18c-2.4,0-4.3-1.9-4.3-4.3
	v-203C576.3,8,578.2,6.1,580.6,6.1z"/>
<path id="path1702-9" class="st0" d="M660.6,31.3l-33.5-0.1c-1.4,0-2.6-1.1-2.7-2.5c-0.5-6.1-1.3-16.3,1-22.2
	c0.2-0.4,0.5-0.6,0.9-0.6h96.5c1.6,0,2.8,1.3,2.8,2.8V29c0,1.1-0.9,1.9-1.9,2l-34.2,0.3c-0.4,0-0.6,0.2-0.6,0.6l-0.1,182.5
	c0,2.1-1.6,3.8-3.7,3.8c-7,0.2-14.5,1.2-21.5-0.1c-1.1-0.2-1.9-1.1-2-2.2c-0.2-2.3-0.3-4.7-0.3-7.3c0.1-59,0-118-0.4-176.9
	C661.1,31.4,660.9,31.3,660.6,31.3L660.6,31.3z"/>
<circle id="circle1754-6" class="st0" cx="423.6" cy="203" r="16.7"/>
<g id="g12257" transform="translate(-0.42484901,-240.49603)">
	<g id="g12206" transform="matrix(0.98280327,0,0,0.98280327,4.1685602,248.1775)">
		<path id="path1740-2" sodipodi:nodetypes="ccccccscccccccc" class="st0" d="M943,178.8c-0.7-1.2-0.7-1.2-1.3-2.6
			c-0.3-0.2-0.5-0.1-0.5,0.2c0.1,0.9,0.2,1.2,0.3,2.2l0.3,33c0,0.4-0.2,0.7-0.5,0.9c-1.8,1-3.7,0.9-5.7-0.1
			c-0.3-0.2-0.5-0.5-0.5-0.8l0-45.7c0-0.4,0.3-0.7,0.6-0.9c3.2-1,5.8-0.3,7.6,2.8c3.7,6.5,7.4,13,10.9,19.5c1.3,2.4,1.4,5.1-1.2,6.4
			c-0.5,0.3-1.1,0.1-1.3-0.4L943,178.8z"/>
		<path id="path1742-0" sodipodi:nodetypes="ccccccccccccccc" class="st0" d="M976.6,178.8c0.2-1.1,0.2-1.4,0.3-2.4
			c-0.1-0.3-0.3-0.3-0.5-0.1c-0.5,0.9-0.8,1.7-1.3,2.6c-5.9,11.2-10.4,19.1-13.4,23.8c-0.8,1.2-3.1,2-4.5,1.3
			c-1.2-0.6-1.4-1.5-0.8-2.9c3-5.9,9.2-16.9,18.5-33.1c1.7-3,3.4-3.6,6.7-3c0.9,0.1,1.6,1,1.6,1.9v44.8c0,0.3-0.2,0.6-0.5,0.8
			c-1.8,1-3.5,1-5.2,0c-0.3-0.2-0.6-0.6-0.6-1L976.6,178.8z"/>
		<path id="path1728-0" class="st0" d="M753.9,195.8c-8.7-4.4-30.7-5-26.2-20.7c3.6-12.5,19.7-12.7,29.2-7.4
			c2.2,1.2,4.3,3.5,1.6,5.6c-0.8,0.6-1.8,0.7-2.7,0.2c-5.6-3.4-22.1-6.9-22.3,3.9c-0.2,12,27,4.4,28.7,20.7
			c1,9.1-5.5,13.8-13.9,15.2c-7.1,1.1-15.4-1.8-21.3-5.4c-0.4-0.2-0.7-0.7-0.7-1.1c-0.2-2,0.5-3.6,2-5c0.2-0.2,0.6-0.2,0.9,0
			c6.5,5,14.8,8.3,22.4,4.7c4.3-2,5.3-5.3,2.9-10C754.4,196.1,754.2,195.9,753.9,195.8L753.9,195.8z"/>
		<path id="path1730-7" class="st0" d="M812.4,170.6c6-8.5,20.2-7.3,27.9-2.4c1.9,1.2,2.5,2.8,1.3,4.7c-0.7,1-2.1,1.3-3.1,0.7
			c-4.8-3.1-14.9-5.6-19.8-1.3c-6,5.3-0.8,11.5,5.5,12.6c4,0.7,7.8,1.7,11.6,3c7.3,2.6,11,9.2,8.4,16.9c-0.6,1.9-1.8,3.4-3.5,4.6
			c-8.2,5.9-19,4.6-27.7,0.3c-2.5-1.2-4.6-2.1-4.2-4.9c0.2-1.2,0.8-2.1,2-2.7c0.3-0.1,0.6-0.1,0.8,0c3.1,2,6.3,4.1,9.7,4.9
			c4.9,1.2,16.7,1.7,17-6.1c0.1-3.3-1.6-5.5-5.1-6.7c-6.1-1.9-18.4-3.8-21.8-9.9C808.8,179.8,809.1,175.2,812.4,170.6L812.4,170.6z"
			/>
		<path id="path1732-2" class="st0" d="M780.6,188.8c-0.3,0.6-0.9,0.8-1.5,0.6c-0.2-0.1-0.4-0.2-0.5-0.4l-13.8-23.3
			c-0.2-0.3-0.1-0.5,0.2-0.6c3.3-1,5.6-0.3,7,1.9c3.5,5.7,6.9,11.4,10.2,17.1c0.2,0.3,0.2,0.6,0,0.9L780.6,188.8z"/>
		<path id="path1734-3" class="st0" d="M799.4,166.9c1.3-2.1,3.4-2.8,6.3-1.9c0.3,0.1,0.5,0.3,0.5,0.6c0.2,1.6-1,2.4-1.6,3.4
			c-4.4,7.6-8.9,15.1-13.4,22.6c-3.1,5.2-2.3,13.9-2.2,19.7c0,1.1-0.8,2-1.9,2c0,0,0,0,0,0c-1.5,0-2.8-0.3-4.1-1.1
			c-0.3-0.2-0.5-0.5-0.5-0.8c0-7.1-1.2-14.4,2.6-20.7C789.7,182.8,794.5,174.8,799.4,166.9L799.4,166.9z"/>
		<path id="rect1736-0" class="st0" d="M849.8,165l36.6-0.1c0.9,0,1.6,0.7,1.6,1.6l0,1.8c0,0.9-0.7,1.6-1.6,1.6l-36.6,0.1
			c-0.9,0-1.6-0.7-1.6-1.6l0-1.8C848.2,165.7,848.9,165,849.8,165z"/>
		<path id="path1738-2" class="st0" d="M894.3,166.7c0-1.1,0.5-1.6,1.6-1.6l28.5-0.3c0.8,0,1.6,0.5,1.9,1.3c0.6,1.5,0.3,2.8-0.8,3.9
			c-0.2,0.2-0.5,0.3-0.8,0.3c-7.8-0.6-15.6-0.6-23.3,0.2c-0.6,0.1-1,0.5-1,1.1l0,6.9c0,0.7-0.6,1.3-1.3,1.3l-3.4,0
			c-0.8,0-1.5-0.7-1.5-1.5c0,0,0,0,0,0L894.3,166.7z"/>
		<path id="rect1750-1" class="st0" d="M866.4,176.4h3.3c0.8,0,1.5,0.7,1.5,1.5v33.6c0,0.8-0.7,1.5-1.5,1.5h-3.3
			c-0.8,0-1.5-0.7-1.5-1.5v-33.6C864.9,177.1,865.5,176.4,866.4,176.4z"/>
		<path id="path1756-7" class="st0" d="M900.7,192.2l-0.2,8.3c0,0.6-0.5,1.2-1.2,1.2l-3.7,0.1c-0.7,0-1.2-0.5-1.2-1.2c0,0,0,0,0,0
			l0-13.6c0-0.7,0.5-1.2,1.2-1.2l0,0H922c0.7,0,1.2,0.5,1.2,1.2c0,0,0,0,0,0l0,2.7c0,0.7-0.5,1.2-1.2,1.2l-20,0.1
			C901.3,191,900.7,191.5,900.7,192.2L900.7,192.2z"/>
		<path id="rect1758-6" class="st0" d="M895.4,207.6H926c0.6,0,1.2,0.5,1.2,1.2v3c0,0.6-0.5,1.2-1.2,1.2h-30.6
			c-0.6,0-1.2-0.5-1.2-1.2v-3C894.2,208.1,894.7,207.6,895.4,207.6z"/>
	</g>
</g>
<path id="path1692-9" class="st0" d="M166.5,166.3c-0.2,63.5-92.9,72.1-102.7,9c-0.8-5.2-1.1-12.2-1-17.9c0.4-44,0.5-75.6,0.2-94.7
	c-0.2-11.5,1.1-21.2,6.6-31.2C77.9,16.3,91.2,8,109.5,6.5c28.9-2.3,50.4,17.5,54,45.5c0.6,4.3,3,11.1-3.3,11.6
	c-6,0.5-11.9,0.6-17.9,0.3c-5-0.2-4.8-5.1-5.4-9c-2.3-16.8-16-29.6-33.4-21.7c-10.2,4.6-13.7,15.9-13.7,26.6c0,35.5,0,70.9,0,106.4
	c0,21.7,21.9,34.9,40,21.9c7.2-5.2,10.1-13.9,10.1-22.7c0-12.5,0-25,0-37.6c0-0.3-0.2-0.5-0.5-0.5c-6.3,0-12.7,0-19,0
	c-3.1,0-4.4-0.8-4.7-3.9c-0.5-5.1-1.5-13.8,0.7-18.4c0.4-0.8,1.2-1.3,2-1.3c11.3,0,22.7,0,34.1,0c9.4,0,13.8,3.4,13.8,12.9
	C166.5,133.2,166.5,149.8,166.5,166.3L166.5,166.3z"/>
<path id="path9239" class="st1" d="M288.1,5.7c-58.4,0-105.8,47.4-105.8,105.8c0,58.4,47.4,105.8,105.8,105.8
	c58.4,0,105.8-47.4,105.8-105.8C393.9,53.1,346.5,5.7,288.1,5.7z M289,7.4c2.3,0,4.5,0.1,6.8,0.3c0,0,0.1,0,0.1,0
	c2.3,0.2,4.5,0.4,6.7,0.7c2.3,0.3,4.5,0.7,6.8,1.2c2.2,0.5,4.5,1,6.7,1.7c2.2,0.6,4.4,1.3,6.6,2.1c2.2,0.8,4.3,1.6,6.4,2.6
	c2.1,0.9,4.2,1.9,6.3,3h0c2.1,1.1,4.1,2.2,6.1,3.5c2,1.2,4,2.6,5.9,3.9c1.9,1.4,3.8,2.9,5.6,4.4c1.8,1.5,3.6,3.2,5.4,4.9
	c1.7,1.7,3.4,3.5,5.1,5.3c1.6,1.8,3.2,3.8,4.8,5.8c1.5,2,3,4.1,4.4,6.2c2.8,4.3,5.4,8.9,7.7,13.8c0,0.1,0,0.2,0,0.2
	c-0.1,0.1-0.1,0.1-0.2,0c-1.2-2.3-2.5-4.6-3.8-6.7c-1.3-2.2-2.7-4.3-4.1-6.3c0,0,0,0,0,0c0,0,0,0,0,0c-1.4-2-2.9-4-4.5-5.8
	c-1.6-1.9-3.2-3.7-4.8-5.4c-1.7-1.7-3.4-3.4-5.1-5c-1.8-1.6-3.5-3.1-5.4-4.6c-1.8-1.5-3.7-2.8-5.6-4.1c-1.9-1.3-3.8-2.5-5.8-3.7
	c0,0-0.1,0-0.1-0.1c-2-1.1-3.9-2.2-6-3.2c0,0,0,0,0,0h0c0,0,0,0,0,0c-2-1-4.1-2-6.2-2.8c0,0,0,0,0,0h0c0,0,0,0,0,0
	c-2.1-0.9-4.2-1.7-6.3-2.4c0,0-0.1,0-0.1,0c-2.1-0.7-4.3-1.4-6.4-2c0,0,0,0,0,0h0c0,0,0,0,0,0c-2.2-0.6-4.4-1.1-6.6-1.6
	c-2.2-0.4-4.5-0.8-6.7-1.1c-2.2-0.3-4.4-0.5-6.7-0.7c-0.1,0-0.1,0-0.2,0c-2.2-0.2-4.5-0.2-6.7-0.3c-2.3,0-4.5,0-6.8,0.2
	c-2.3,0.1-4.5,0.3-6.8,0.6h0c-2.2,0.3-4.5,0.6-6.7,1c-2.2,0.4-4.4,0.9-6.7,1.5c-2.2,0.6-4.4,1.2-6.6,1.9h0c-2.1,0.7-4.3,1.5-6.4,2.3
	c0,0-0.1,0-0.1,0.1c-2.1,0.8-4.2,1.8-6.2,2.7c-2.1,1-4.1,2.1-6.1,3.2c-2,1.1-4,2.3-5.9,3.6c0,0-0.1,0-0.1,0.1
	c-1.9,1.3-3.8,2.6-5.7,4c-1.9,1.4-3.7,2.9-5.4,4.5c0,0-0.1,0-0.1,0.1c-1.8,1.6-3.5,3.2-5.2,4.9c-1.7,1.7-3.3,3.5-4.9,5.3
	c0,0,0,0,0,0v0c0,0,0,0,0,0c-1.6,1.8-3.1,3.7-4.6,5.7c0,0,0,0,0,0v0c0,0,0,0,0,0c-1.5,2-2.9,4.1-4.2,6.2c-1.4,2.1-2.7,4.4-3.9,6.7
	c-0.1,0.1-0.1,0.1-0.2,0c0-0.1,0-0.2,0-0.3c1.2-2.4,2.5-4.8,3.8-7.1c1.3-2.3,2.7-4.5,4.2-6.6c1.5-2.1,3-4.2,4.5-6.2
	c1.6-2,3.2-3.9,4.9-5.7c1.7-1.8,3.4-3.6,5.2-5.2c1.8-1.7,3.6-3.3,5.5-4.8c1.9-1.5,3.8-2.9,5.7-4.3c1.9-1.4,3.9-2.6,6-3.8
	c2-1.2,4.1-2.3,6.2-3.4c2.1-1.1,4.2-2,6.3-2.9c2.1-0.9,4.3-1.7,6.5-2.5c2.2-0.7,4.4-1.4,6.6-2c0,0,0,0,0,0c2.2-0.6,4.4-1.1,6.7-1.5
	c0,0,0,0,0,0c2.2-0.4,4.5-0.8,6.8-1.1c2.3-0.3,4.5-0.5,6.8-0.6C284.4,7.4,286.7,7.4,289,7.4L289,7.4z M289.4,34.5
	c1.3,0,2.6,0.1,3.9,0.1c0.4,0,0.8,0.1,1.2,0.1c0.9,0.1,1.8,0.1,2.7,0.2c0.5,0.1,1,0.1,1.5,0.2c0.8,0.1,1.6,0.2,2.4,0.3
	c0.5,0.1,1,0.2,1.5,0.3c0.8,0.1,1.5,0.3,2.3,0.5c0.5,0.1,1.1,0.2,1.6,0.4c0.7,0.2,1.5,0.4,2.2,0.6c0.5,0.2,1.1,0.3,1.6,0.5
	c0.7,0.2,1.4,0.4,2.1,0.7c0.6,0.2,1.1,0.4,1.7,0.6c0.7,0.2,1.3,0.5,2,0.7c0.6,0.2,1.1,0.4,1.7,0.7c0.7,0.3,1.3,0.6,2,0.9
	c0.6,0.3,1.1,0.5,1.7,0.8c0.7,0.3,1.3,0.6,2,1c0.5,0.3,1.1,0.6,1.6,0.9c0.7,0.4,1.3,0.7,2,1.1c0.5,0.3,1,0.6,1.5,0.9
	c0.7,0.4,1.3,0.8,1.9,1.3c0.5,0.3,1,0.6,1.5,1c0.7,0.5,1.3,0.9,1.9,1.4c0.5,0.3,0.9,0.7,1.4,1c0.7,0.5,1.3,1.1,2,1.6
	c0.4,0.3,0.8,0.7,1.3,1c0.7,0.6,1.4,1.2,2,1.9c0.4,0.3,0.7,0.7,1.1,1c1,1,2,2,3,3.1c0.3,0.3,0.7,0.6,1,1s0.7,0.7,0.9,1
	c0.4,0.6,0.6,0.9,0.5,0.9h0c0,0,0,0,0,0c-0.1,0-0.3-0.2-0.8-0.7c-0.9-0.9-1.8-1.7-2.7-2.6c-1.9-1.7-3.8-3.2-5.7-4.7
	c-2-1.5-4-2.9-6.1-4.1h0c-2.1-1.3-4.3-2.5-6.5-3.6h0c-1.1-0.5-2.3-1.1-3.4-1.6c-0.2-0.1-0.3-0.1-0.3-0.1c0,0,0,0.2,0.1,0.3
	c0.8,1.3,1.4,2.5,1.9,3.6c0.5,1.2,0.8,2.3,0.9,3.3v0c0.1,0.5,0.1,1,0.1,1.5c0,1-0.2,1.9-0.5,2.8c-0.2,0.4-0.3,0.9-0.6,1.3
	c-0.4,0.8-1,1.6-1.7,2.3c-0.7,0.7-1.5,1.3-2.4,1.9c-0.9,0.6-1.9,1.1-3,1.5s-2.3,0.8-3.6,1.1c-0.2,0.1-0.4,0-0.6-0.1
	c-1.8-0.8-3.6-1.5-5.4-2.1c-1.8-0.6-3.6-1.1-5.4-1.5c-1.8-0.4-3.6-0.7-5.3-1c0,0-0.1,0-0.1,0c-1.8-0.2-3.6-0.4-5.3-0.4c0,0,0,0,0,0
	c-1.8,0-3.6,0-5.4,0.1c-1.8,0.1-3.6,0.4-5.4,0.7c-1.8,0.3-3.6,0.7-5.4,1.2c-1.8,0.5-3.6,1.1-5.4,1.8c-2.5,0.9-4.3,1.4-5.7,1.5
	c-0.8,0-1.6,0-2.3,0c0,0,0,0-0.1,0c-0.7-0.1-1.4-0.2-2-0.4c0,0-0.1,0-0.1,0c-0.7-0.2-1.3-0.4-1.9-0.6c-0.6-0.3-1.2-0.6-1.7-0.9
	c-0.5-0.3-1-0.7-1.4-1.1c0,0,0,0,0,0h0c0,0,0,0,0,0c-0.4-0.4-0.8-0.8-1.2-1.3c0,0,0,0,0,0c0,0,0,0,0,0c-0.4-0.5-0.7-0.9-0.9-1.4
	c-0.3-0.5-0.5-1-0.7-1.6c-0.2-0.5-0.3-1.1-0.4-1.7c-0.1-0.6-0.1-1.1-0.1-1.7c0-0.6,0.1-1.2,0.2-1.8v0c0.1-0.6,0.3-1.2,0.5-1.8
	c0.2-0.6,0.5-1.2,0.9-1.7v0c0.3-0.6,0.7-1.1,1.2-1.7c0.5-0.5,1-1.1,1.6-1.6c0.6-0.5,1.2-1,1.9-1.4c0.1-0.1,0.1-0.1,0.1-0.2
	c0,0,0,0,0-0.1c0-0.1-0.1-0.1-0.2-0.1c-2.7,1.1-5.4,2.3-7.9,3.7c-2.6,1.3-5,2.8-7.4,4.4c-4.8,3.2-9.2,7-13.2,11.2c0,0-0.1,0-0.1,0
	c0-0.1,0-0.1,0-0.2c1-1.2,2-2.3,3-3.4c0.4-0.4,0.8-0.8,1.1-1.2c0.7-0.7,1.3-1.3,2-2c0.4-0.4,0.9-0.8,1.3-1.2
	c0.6-0.6,1.3-1.2,1.9-1.7c0.5-0.4,0.9-0.8,1.4-1.2c0.7-0.5,1.3-1.1,2-1.6c0.5-0.4,1-0.8,1.5-1.1c0.7-0.5,1.3-0.9,2-1.4
	c0.5-0.4,1.1-0.7,1.6-1.1c0.7-0.4,1.4-0.9,2-1.3c0.5-0.3,1.1-0.6,1.6-0.9c0.7-0.4,1.4-0.8,2.1-1.2c0.6-0.3,1.2-0.6,1.7-0.9
	c0.7-0.3,1.4-0.7,2-1c0.6-0.3,1.2-0.5,1.8-0.8c0.7-0.3,1.4-0.6,2.1-0.9c0.6-0.2,1.2-0.5,1.7-0.7c0.7-0.3,1.5-0.5,2.2-0.8
	c0.6-0.2,1.2-0.4,1.8-0.6c0.7-0.2,1.5-0.4,2.2-0.7c0.6-0.2,1.2-0.3,1.8-0.5c0.7-0.2,1.5-0.4,2.2-0.5c0.6-0.1,1.2-0.3,1.8-0.4
	c0.8-0.2,1.5-0.3,2.3-0.4c0.6-0.1,1.2-0.2,1.8-0.3c0.8-0.1,1.6-0.2,2.4-0.3c0.6-0.1,1.2-0.2,1.8-0.2c0.9-0.1,1.8-0.1,2.7-0.2
	c0.5,0,1-0.1,1.4-0.1C286.7,34.5,288.1,34.4,289.4,34.5L289.4,34.5z M233.9,46.2C234,46.2,234,46.2,233.9,46.2
	c-1.1,1.2-2.2,2.3-3.2,3.5v0c-0.5,0.5-0.9,1.1-1.4,1.6c-1.6,1.8-3.1,3.7-4.5,5.6c-2.7,3.7-5.2,7.6-7.3,11.6c-0.7,1.3-1.4,2.7-2,4.1
	c-0.4,0.8-0.7,1.6-1,2.3c-0.3,0.6-0.5,1.2-0.8,1.8v0c-0.2,0.4-0.3,0.8-0.4,1.2c-0.9,2.4-1.8,4.9-2.6,7.3c-0.4,1.4-0.8,2.9-1.2,4.3v0
	c-0.4,1.5-0.7,2.9-1,4.4c-0.6,2.9-1,5.9-1.3,8.9c-0.2,1.5-0.3,3-0.3,4.5v0c0,0,0,0.1,0,0.1c-0.2,2.9-0.2,5.9,0,8.8v0
	c0.1,3,0.4,6,0.8,8.9v0c0.6,4.4,1.5,8.8,2.8,13.2v0c0.8,2.9,1.8,5.7,2.9,8.5v0c0.6,1.4,1.2,2.8,1.8,4.2v0c0.6,1.4,1.3,2.7,2,4.1
	c0.7,1.3,1.4,2.7,2.2,4c1.6,2.6,3.3,5.2,5.1,7.7c1.9,2.5,3.8,4.9,6,7.2c1.1,1.2,2.2,2.3,3.3,3.4c0.1,0.1,0.1,0.1,0,0.1
	c0,0,0,0-0.1,0.1c0,0-0.1,0-0.1,0c-0.8-0.6-1.6-1.2-2.3-1.9c-1.2-1.1-2.4-2.2-3.5-3.4c-1.1-1.2-2.2-2.3-3.3-3.5
	c-1.1-1.2-2.1-2.4-3.1-3.6c-2.9-3.7-5.5-7.6-7.8-11.6c-2.2-4-4.1-8.2-5.7-12.4c-1-2.8-1.9-5.7-2.6-8.6c-0.4-1.5-0.7-2.9-1-4.4
	c-0.3-1.5-0.5-2.9-0.7-4.4c-0.2-1.5-0.4-2.9-0.5-4.4c-0.1-1.5-0.2-3-0.3-4.4v0c-0.1-3,0-5.9,0.2-8.9c0.1-1.5,0.3-3,0.4-4.4
	c0.4-2.9,0.9-5.9,1.6-8.8c1.7-7.3,4.3-14.3,8-21c0.3-0.5,0.6-1,0.8-1.4c2-3.5,4.2-6.9,6.7-10.2C224.4,55.1,228.8,50.4,233.9,46.2
	C233.8,46.2,233.9,46.2,233.9,46.2L233.9,46.2z M344.8,48.4c0,0,0.1,0,0.1,0.1c1.2,1.1,2.4,2.2,3.5,3.4c1.1,1.1,2.2,2.3,3.3,3.5v0
	c1.1,1.2,2.1,2.4,3.1,3.7v0c2,2.5,3.8,5,5.4,7.7v0c0.8,1.3,1.6,2.6,2.4,4v0c1.5,2.7,2.8,5.5,4,8.3c1.8,4.2,3.2,8.5,4.2,12.9v0
	c0.4,1.5,0.7,2.9,0.9,4.4v0c0.6,3,1,5.9,1.2,8.9c0.1,1.5,0.2,3,0.2,4.5c0.1,3,0,6-0.2,9c-0.2,3-0.6,6-1.1,8.9v0
	c-1.9,10.3-5.7,20.4-11.3,29.5c-2.4,3.9-5.2,7.7-8.4,11.2c-2.1,2.4-4.3,4.6-6.8,6.8c-1.2,1.1-2.4,2.1-3.7,3.2c0,0-0.1,0.1-0.2,0
	c0,0,0,0,0,0c-0.1,0-0.1,0,0,0c3.4-3.2,6.5-6.7,9.3-10.3l0,0c1.9-2.4,3.6-4.9,5.2-7.5v0c1.6-2.6,3-5.2,4.3-7.9v0c2-4,3.6-8.2,5-12.4
	c0.9-2.8,1.7-5.7,2.3-8.5c0.3-1.4,0.6-2.9,0.8-4.3v0c0.2-1.4,0.4-2.9,0.6-4.4v0c0.3-2.9,0.6-5.8,0.6-8.8v0c0.1-4.4-0.1-8.8-0.6-13.2
	v0c-0.2-1.5-0.4-2.9-0.6-4.4v0c-0.5-2.9-1.1-5.8-1.9-8.6c-1.1-4.3-2.6-8.5-4.3-12.6v0c-0.6-1.4-1.2-2.7-1.9-4.1
	c-1.3-2.7-2.7-5.3-4.3-7.9v0c-0.8-1.3-1.6-2.6-2.5-3.8v0c-1.7-2.5-3.6-4.9-5.6-7.3v0c-1-1.2-2-2.3-3.1-3.5c-0.1-0.1-0.1-0.2-0.1-0.2
	c0-0.1,0-0.1,0.1-0.2C344.7,48.4,344.7,48.4,344.8,48.4L344.8,48.4z M328.5,53.9c0,0,0.1,0.1,0.1,0.1c-0.1,0.5-0.1,1.1-0.2,1.6
	c-0.3,1.5-0.9,2.9-1.6,4.2l0,0c-0.5,0.8-1.1,1.6-1.7,2.4c-0.6,0.7-1.3,1.4-2.1,2c-0.8,0.6-1.6,1.2-2.4,1.7c0,0,0,0,0,0l0,0
	c0,0,0,0,0,0c-0.9,0.5-1.8,0.9-2.7,1.3c-0.9,0.4-1.9,0.7-2.9,1c-1,0.3-2,0.5-2.9,0.6c-0.2,0-0.4,0-0.6-0.1c-1.7-0.8-3.5-1.5-5.2-2.1
	c-1.7-0.6-3.5-1.1-5.2-1.5h0c-1.7-0.4-3.5-0.7-5.2-1c-1.7-0.2-3.5-0.4-5.2-0.4c0,0-0.1,0-0.1,0c-1.7,0-3.5,0-5.2,0.2
	c-1.8,0.1-3.5,0.4-5.3,0.7c-1.8,0.3-3.5,0.8-5.3,1.3c-1.8,0.5-3.5,1.1-5.3,1.8c-0.6,0.3-1.3,0.5-1.9,0.6s-1.3,0.3-2,0.4h0
	c-0.7,0.1-1.3,0.2-2,0.2c-0.7,0-1.3,0-1.9,0c0,0,0,0,0,0c-0.6,0-1.3-0.1-1.9-0.2c-0.6-0.1-1.2-0.2-1.9-0.4c-0.6-0.2-1.2-0.3-1.8-0.6
	c0,0,0,0,0,0h0c0,0,0,0,0,0c-0.6-0.2-1.1-0.5-1.7-0.7c0,0,0,0,0,0h0c0,0,0,0,0,0c-0.5-0.3-1-0.6-1.5-0.9c0,0,0,0-0.1,0
	c-0.5-0.3-1-0.7-1.4-1.1c-0.5-0.4-0.9-0.8-1.3-1.3c-0.4-0.5-0.8-1-1.2-1.5c-0.4-0.5-0.7-1.1-1-1.6c-0.3-0.6-0.6-1.2-0.8-1.8
	c-0.2-0.6-0.4-1.3-0.6-2c-0.2-0.7-0.3-1.4-0.3-2.1c0,0,0-0.1,0.1-0.1c0,0,0.1,0,0.1,0.1c0.2,0.6,0.4,1.2,0.7,1.8
	c0.2,0.6,0.5,1.1,0.8,1.7c0.6,1.1,1.3,2.1,2.1,2.9c0.4,0.4,0.8,0.9,1.2,1.2c0.4,0.4,0.9,0.8,1.3,1.1c0.5,0.3,0.9,0.7,1.4,0.9
	c0.5,0.3,1,0.5,1.5,0.8c0.5,0.2,1.1,0.4,1.6,0.6c0.5,0.2,1.1,0.3,1.7,0.4c0.6,0.1,1.1,0.2,1.7,0.3h0c0.6,0.1,1.2,0.1,1.8,0.1h0h0
	c0.6,0,1.2,0,1.8-0.1c0,0,0,0,0,0c0.6-0.1,1.2-0.1,1.8-0.3c0.6-0.1,1.2-0.3,1.8-0.4c0,0,0.1,0,0.1,0c0.6-0.2,1.2-0.4,1.8-0.6
	c1.7-0.7,3.5-1.3,5.2-1.9c5.2-1.6,10.5-2.3,15.7-2.1c1.7,0,3.5,0.2,5.2,0.4c1.7,0.2,3.5,0.6,5.2,1c1.7,0.4,3.5,0.9,5.2,1.6
	c0,0,0,0,0,0h0c0,0,0,0,0,0c1.7,0.6,3.5,1.3,5.2,2.1c0.2,0.1,0.5,0.1,0.8,0.1c1.4-0.2,3.1-0.7,4.8-1.3s3.5-1.5,5.1-2.5
	c0.8-0.5,1.6-1.1,2.3-1.7c0.7-0.6,1.3-1.2,1.9-1.9c0.3-0.3,0.5-0.7,0.8-1.1c0.2-0.4,0.4-0.7,0.6-1.1c0.2-0.4,0.3-0.8,0.5-1.2
	c0.1-0.4,0.2-0.8,0.3-1.2c0-0.1,0.1-0.2,0.2-0.3C328.4,53.9,328.5,53.9,328.5,53.9L328.5,53.9z M288,76.8
	c19.4,0,35.2,15.7,35.2,35.2c0,19.4-15.7,35.2-35.2,35.2c0,0,0,0,0,0c-19.4,0-35.2-15.8-35.2-35.2C252.9,92.5,268.6,76.8,288,76.8z
	 M288.3,78.2c-19.3-0.1-35,14.9-35.1,33.5c-0.1,18.6,15.4,33.9,34.6,34c0,0,0,0,0,0c19.3,0.1,35-14.9,35.1-33.5c0,0,0,0,0,0
	C323,93.5,307.5,78.3,288.3,78.2L288.3,78.2z M189.6,82.5c0,0,0.1,0.1,0.1,0.2c0,0.1,0,0.3,0,0.4c-0.6,2.1-1.1,4.3-1.6,6.4
	c-0.9,4.3-1.6,8.6-2,12.9c-0.2,2.1-0.3,4.3-0.4,6.4c-0.1,2.1,0,4.3,0,6.4c0.1,4.3,0.6,8.5,1.2,12.7c0.7,4.2,1.6,8.3,2.7,12.4v0
	c0.6,2,1.2,4.1,1.9,6.1v0c0.7,2,1.5,4,2.3,5.9c0.8,2,1.7,3.9,2.7,5.8c0.9,1.9,1.9,3.8,3,5.7c1.1,1.9,2.2,3.7,3.4,5.5
	c1.2,1.8,2.4,3.6,3.7,5.3v0c1.3,1.7,2.6,3.5,4,5.2c0.1,0.1,0.1,0.1,0.2,0.2c0.1,0,0.1,0.1,0.2,0.1c0.1,0.2-0.2,0.4-0.4,0.2
	c-1.5-1.7-2.9-3.4-4.2-5.1c0,0-0.1-0.1-0.1-0.1c-1.3-1.7-2.6-3.5-3.8-5.3v0c-1.2-1.8-2.4-3.6-3.5-5.5c0,0,0-0.1-0.1-0.1
	c-1.1-1.8-2.1-3.7-3.1-5.6c0,0,0-0.1-0.1-0.1c-1-1.9-1.9-3.8-2.7-5.8c-0.8-1.9-1.6-3.9-2.3-5.9c0,0,0-0.1-0.1-0.1
	c-0.7-2-1.4-4-1.9-6c-0.6-2.1-1.1-4.1-1.6-6.2c-0.5-2.1-0.8-4.2-1.2-6.3c-0.3-2.1-0.6-4.2-0.8-6.4c-0.2-2.1-0.3-4.3-0.4-6.4
	c-0.1-2.2,0-4.3,0.1-6.5c0.1-2.2,0.2-4.3,0.5-6.5c0.2-2.2,0.5-4.3,0.9-6.5c0.4-2.2,0.8-4.4,1.3-6.5v0c0.5-2.2,1.1-4.3,1.7-6.5
	C189.6,82.6,189.6,82.5,189.6,82.5L189.6,82.5z M387.2,84.9c0,0,0.1,0,0.1,0.1c0.6,2.1,1.1,4.3,1.6,6.5c0,0,0,0,0,0c0,0,0,0,0,0
	c0.5,2.2,0.9,4.3,1.2,6.5c0.3,2.2,0.6,4.3,0.7,6.5c0,0,0,0,0,0c0,0,0,0,0,0c0.2,2.2,0.3,4.3,0.3,6.4c0,2.1,0,4.3-0.1,6.4v0
	c-0.1,2.1-0.3,4.3-0.5,6.4v0c-0.2,2.1-0.5,4.2-0.9,6.3c-0.4,2.1-0.8,4.2-1.3,6.2c-0.5,2.1-1.1,4.1-1.7,6.1c-0.6,2-1.3,4-2,5.9
	c0,0,0,0.1-0.1,0.1c-0.7,2-1.6,3.9-2.4,5.8c-0.9,1.9-1.8,3.9-2.8,5.7v0c-1,1.9-2.1,3.8-3.2,5.6v0c-1.1,1.8-2.3,3.6-3.6,5.4
	c-1.2,1.8-2.6,3.5-3.9,5.2c-1.4,1.7-2.8,3.4-4.3,5c-0.2,0.3-0.5,0.5-0.6,0.7c0,0-0.1,0-0.1,0c0,0,0,0,0,0c0,0,0-0.1,0-0.1
	c1.2-1.4,2.4-2.8,3.5-4.3c1.1-1.4,2.2-2.9,3.3-4.4v0c1.1-1.5,2.1-2.9,3-4.4c1-1.5,1.9-3,2.8-4.5c0.9-1.5,1.7-3,2.5-4.6
	c0-0.1,0.1-0.1,0.1-0.2c0.8-1.5,1.5-3.1,2.2-4.6c0.7-1.6,1.4-3.1,2-4.7c0-0.1,0-0.1,0.1-0.2c0.6-1.6,1.2-3.2,1.8-4.8v0
	c0.6-1.6,1.1-3.3,1.5-5c0.5-1.7,0.9-3.4,1.3-5.1c0.4-1.7,0.7-3.4,1-5.1c0-0.1,0-0.1,0-0.2c0.3-1.7,0.5-3.4,0.8-5.1
	c0.2-1.8,0.4-3.5,0.5-5.3c0.1-1.8,0.2-3.6,0.3-5.4c0-1.8,0-3.6,0-5.5c0-1.8-0.1-3.7-0.2-5.5c-0.1-1.5-0.2-3-0.4-4.5v0
	c-0.2-1.5-0.4-3-0.6-4.4c-0.3-1.5-0.5-2.9-0.9-4.4v0c-0.3-1.5-0.7-2.9-1.1-4.4c0-0.1,0-0.2,0.1-0.3
	C387.1,84.9,387.1,84.9,387.2,84.9L387.2,84.9z M288,95.9c8.9,0,16.1,7.2,16.1,16.1c0,8.9-7.2,16.1-16.1,16.1
	c-8.9,0-16.1-7.2-16.1-16.1C271.9,103.1,279.1,95.9,288,95.9z M354.1,105.2c0.7,0,1.3,0.1,2,0.2c0.1,0,0.1,0,0.2,0
	c0.7,0.1,1.3,0.3,2,0.5c0.7,0.2,1.3,0.5,2,0.8c0.1,0,0.1,0.1,0.2,0.1c0.6,0.3,1.3,0.7,1.9,1.2c0,0,0,0.1,0,0.1c0,0,0,0,0,0
	c-0.1,0-0.1,0-0.2,0.1c0,0-0.1,0-0.1,0c-0.6-0.4-1.2-0.6-1.8-0.9c0,0,0,0,0,0h0c0,0,0,0,0,0c-0.6-0.2-1.2-0.4-1.9-0.6c0,0,0,0,0,0h0
	c0,0,0,0,0,0c-1.9-0.4-3.8-0.4-5.6-0.1c-0.6,0.1-1.2,0.3-1.8,0.5c-0.6,0.2-1.2,0.4-1.7,0.7c-0.6,0.3-1.1,0.6-1.6,0.9
	c-1.1,0.7-2.1,1.4-3,2.3c-0.5,0.4-0.9,0.9-1.3,1.4v0c-0.4,0.5-0.8,1-1.2,1.5v0c-0.4,0.5-0.7,1.1-1,1.6c0,0,0,0,0,0c0,0,0,0,0,0
	c-0.3,0.6-0.6,1.1-0.8,1.7v0c-0.2,0.6-0.5,1.2-0.6,1.8c0,0,0,0,0,0c0,0,0,0,0,0c-0.2,0.6-0.3,1.2-0.4,1.8c-0.3,1.9-0.7,3.7-1.2,5.5
	c-0.5,1.8-1.1,3.5-1.7,5.2c-0.7,1.7-1.4,3.3-2.2,4.9c-0.8,1.6-1.7,3.1-2.7,4.5c0,0,0,0,0,0v0c0,0,0,0,0,0c-1,1.5-2,2.9-3.2,4.2
	c-1.1,1.4-2.4,2.7-3.7,3.9c-1.3,1.3-2.7,2.5-4.1,3.6c-1.5,1.2-3,2.3-4.6,3.3c-0.2,0.1-0.4,0.4-0.6,0.7c0,0,0,0,0,0v0c0,0,0,0,0,0
	c-0.2,0.3-0.3,0.7-0.4,1.1c-0.4,1.6-0.7,3.1-1,4.5c-0.2,1.4-0.4,2.7-0.4,4c0,0.7,0,1.3,0.1,2c0.1,0.7,0.2,1.3,0.3,2
	c0.2,0.7,0.4,1.4,0.6,2.2v0c0.3,0.7,0.6,1.5,0.9,2.3c0,0,0,0.1,0,0.1c0,0,0,0-0.1-0.1c-0.5-0.7-1-1.5-1.4-2.2
	c-0.4-0.8-0.7-1.6-1-2.4c-0.3-0.8-0.5-1.6-0.6-2.5s-0.2-1.7-0.3-2.5c0-0.8,0-1.7,0.1-2.5c0,0,0-0.1,0-0.1c0.1-0.8,0.2-1.7,0.4-2.5
	c0,0,0,0,0,0v0c0,0,0,0,0,0c0.2-0.8,0.4-1.6,0.6-2.4c0,0,0-0.1,0-0.1c0.3-0.8,0.6-1.6,0.9-2.3c0.1-0.2,0.2-0.4,0.4-0.5
	c1.6-1,3.1-2.1,4.5-3.2c1.4-1.1,2.8-2.3,4-3.5c1.3-1.2,2.4-2.5,3.5-3.8c0,0,0,0,0,0v0c0,0,0,0,0,0c1.1-1.3,2.1-2.7,3.1-4.1
	c1-1.4,1.9-2.9,2.7-4.4v0c0.8-1.5,1.6-3.1,2.2-4.7c0.7-1.6,1.3-3.3,1.8-5c0.5-1.7,1-3.5,1.3-5.3c0.3-1.4,0.6-2.6,0.9-3.6
	c0.3-1,0.6-1.8,0.9-2.4c0.3-0.6,0.7-1.3,1.1-1.9c0.1-0.2,0.2-0.3,0.4-0.5c0.3-0.4,0.7-0.9,1-1.3c0.1-0.1,0.2-0.3,0.4-0.4
	c0.5-0.5,1-1,1.5-1.5c0.1-0.1,0.2-0.2,0.3-0.2c0.4-0.4,0.9-0.7,1.4-1c0.2-0.1,0.3-0.2,0.5-0.3c0.5-0.3,1-0.6,1.5-0.8
	c0.1-0.1,0.2-0.1,0.3-0.2c0.6-0.3,1.3-0.6,2-0.8c0,0,0.1,0,0.1,0c0.7-0.2,1.4-0.4,2.1-0.5c0,0,0.1,0,0.1,0
	C352.7,105.3,353.4,105.2,354.1,105.2L354.1,105.2z M222.5,105.6c0.6,0,1.3,0.1,1.9,0.2c0.2,0,0.4,0.1,0.5,0.1
	c0.5,0.1,1,0.2,1.5,0.3c0.2,0,0.3,0.1,0.5,0.1c0.6,0.2,1.2,0.4,1.8,0.7c0.1,0.1,0.3,0.1,0.4,0.2c0.5,0.2,1,0.5,1.4,0.7
	c0.2,0.1,0.4,0.2,0.5,0.3c0.5,0.3,0.9,0.6,1.4,0.9c0.1,0.1,0.2,0.1,0.3,0.2c0.5,0.4,1.1,0.8,1.6,1.3c0.1,0.1,0.3,0.3,0.4,0.4
	c0.4,0.4,0.7,0.7,1.1,1.1c0.1,0.1,0.3,0.3,0.4,0.4c0.5,0.5,0.9,1,1.3,1.5c0.1,0.2,0.2,0.4,0.2,0.6c0.1,1.9,0.4,3.7,0.7,5.5
	c0.3,1.8,0.7,3.5,1.2,5.2s1,3.4,1.6,5c0.6,1.6,1.3,3.2,2.1,4.7c0.8,1.5,1.6,3,2.6,4.4c0.9,1.4,2,2.8,3,4.2c1.1,1.3,2.3,2.6,3.5,3.9
	c1.3,1.3,2.6,2.5,4,3.6c1,0.9,1.9,1.6,2.6,2.3c0.7,0.7,1.2,1.3,1.6,1.9c0.4,0.6,0.8,1.3,1.2,2s0.7,1.5,1,2.2
	c0.3,0.8,0.5,1.6,0.7,2.4c0.2,0.8,0.3,1.6,0.4,2.4c0,0,0,0,0,0c0,0,0,0,0,0c0.1,0.8,0.1,1.6,0.1,2.4c-0.1,2.4-0.8,4.8-2.3,6.8
	c-0.4,0.5-0.6,0.8-0.6,0.7c0,0,0,0,0,0c0,0,0.1-0.3,0.4-0.9c0,0,0,0,0,0c0.7-1.4,1.2-2.8,1.4-4.3c0.1-0.5,0.1-1,0.1-1.4
	c0-1,0-1.9-0.2-2.9c-0.1-1-0.4-1.9-0.7-2.8c-0.3-0.9-0.7-1.8-1.2-2.7c-0.5-0.9-1-1.7-1.5-2.5c-0.6-0.8-1.2-1.6-1.9-2.3
	c-0.7-0.7-1.4-1.4-2.1-2c-1.4-1.2-2.8-2.4-4-3.6c-1.3-1.3-2.5-2.6-3.6-3.9v0c-1.1-1.3-2.1-2.7-3.1-4.2c-0.9-1.4-1.8-2.9-2.6-4.5
	c-0.8-1.5-1.5-3.1-2.1-4.7c-0.6-1.6-1.2-3.3-1.6-5c0,0,0,0,0,0c0,0,0,0,0,0c-0.9-3.4-1.6-7-1.9-10.8c0-0.2-0.1-0.4-0.2-0.6
	c-0.6-0.8-1.2-1.6-2-2.3c-0.7-0.7-1.5-1.4-2.3-2.1c-0.8-0.6-1.7-1.2-2.6-1.8h0c-0.9-0.5-1.8-1-2.8-1.4c-1-0.4-1.9-0.7-2.9-0.9h0
	c-0.5-0.1-1-0.2-1.5-0.2c-1-0.1-2-0.1-3,0c-0.5,0.1-1,0.2-1.4,0.3c0,0-0.1,0-0.1,0c-0.5,0.1-0.9,0.3-1.4,0.5c0,0,0,0,0,0
	c-0.5,0.2-1,0.4-1.4,0.7c-0.1,0-0.2,0-0.2,0c-0.1,0-0.1-0.1,0-0.2c0.6-0.4,1.2-0.8,1.8-1.1c0.1,0,0.1-0.1,0.2-0.1
	c0.6-0.3,1.2-0.6,1.9-0.8h0c0.6-0.2,1.3-0.3,1.9-0.4c0.1,0,0.1,0,0.2,0C221.2,105.6,221.9,105.6,222.5,105.6L222.5,105.6z
	 M222.3,109.1c0.4,0,0.8,0,1.2,0.1c0.1,0,0.2,0,0.4,0.1c0.3,0,0.6,0.1,0.9,0.2c0.1,0,0.3,0.1,0.4,0.1c0.3,0.1,0.6,0.2,0.9,0.3
	c0.1,0,0.2,0.1,0.4,0.1c0.4,0.2,0.8,0.4,1.3,0.6h0c0.4,0.2,0.8,0.5,1.2,0.7c0.1,0.1,0.3,0.2,0.4,0.3c0.3,0.2,0.6,0.4,0.9,0.7
	c0.1,0.1,0.3,0.2,0.4,0.4c0.3,0.3,0.6,0.5,0.9,0.8c0.1,0.1,0.2,0.2,0.4,0.3c0.4,0.4,0.8,0.9,1.2,1.3c0.1,0.2,0.2,0.4,0.3,0.6
	c0.2,1.9,0.5,3.8,0.8,5.7c0.3,1.8,0.8,3.6,1.3,5.4s1.1,3.5,1.8,5.1c0.7,1.7,1.4,3.3,2.2,4.9c0.8,1.6,1.7,3.1,2.7,4.6
	c1,1.5,2,2.9,3.1,4.3c0,0,0,0,0,0c0,0,0,0,0,0c1.1,1.4,2.3,2.7,3.6,4c1.3,1.3,2.7,2.6,4.1,3.8c1.1,0.9,2,1.7,2.7,2.4
	c0.7,0.7,1.2,1.4,1.6,1.9c1.3,2.1,2.1,4.3,2.3,6.4c0.1,1.1,0.1,2.1-0.1,3.1c-0.2,1-0.4,1.9-0.9,2.8c-0.4,0.9-1,1.7-1.6,2.4
	c-1.7,1.8-4.2,2.9-7.4,3.1c-0.6,0-1.3,0-2,0c-0.2,0-0.2,0,0,0.1c7.8,4.3,16,7.2,24.5,8.8c3.4,0.6,6.8,1.1,10.2,1.3
	c6.8,0.4,13.7,0,20.5-1.2c0.3-0.1,0.6-0.1,0.9-0.2c3.1-0.6,6.2-1.3,9.2-2.2c3.3-1,6.6-2.2,9.8-3.6c1.6-0.7,3.2-1.4,4.8-2.2
	c0.2-0.1,0.3-0.2,0.3-0.2c0-0.1-0.1-0.1-0.3-0.1c-2-0.2-3.7-0.6-5.2-1.2c-0.5-0.2-0.9-0.4-1.4-0.7c-0.9-0.5-1.6-1.1-2.2-1.7
	c-0.3-0.3-0.6-0.7-0.9-1v0c-0.5-0.7-0.9-1.5-1.2-2.4v0c-0.1-0.4-0.3-0.9-0.4-1.3v0c-0.1-0.5-0.2-0.9-0.2-1.4c-0.1-1.5,0-3,0.3-4.7
	c0.2-1.1,0.5-2.3,1-3.5c0.1-0.2,0.2-0.4,0.4-0.5c2.6-1.7,5-3.6,7.3-5.7c1.1-1,2.2-2.1,3.2-3.2c1-1.1,2-2.2,2.9-3.4
	c0.9-1.2,1.8-2.4,2.6-3.6c0,0,0,0,0,0v0c0,0,0,0,0,0c0.8-1.2,1.6-2.5,2.3-3.8c0.7-1.3,1.4-2.7,2-4.1l0,0c0.6-1.4,1.2-2.8,1.7-4.3
	c0.3-0.9,0.6-1.8,0.8-2.7v0c0.7-2.7,1.2-5.6,2.1-8.2v0c0.3-0.9,0.6-1.7,1.1-2.5c0.6-1.2,1.4-2.3,2.4-3.3c1-1,2.3-1.8,3.8-2.4
	c2.1-0.9,4-1.2,5.7-1c0.8,0.1,1.6,0.3,2.4,0.6c0.6,0.3,1.1,0.6,1.6,1c0.1,0.1,0.3,0.2,0.4,0.3c0.3,0.3,0.6,0.5,0.9,0.8
	c0.3,0.3,0.5,0.6,0.8,1l0,0c1,1.4,1.8,3,2.3,4.9c0,0,0,0,0,0c0,0,0,0,0,0c0.3,0.9,0.5,1.9,0.6,2.9c0.2,1.1,0.2,2.3,0.2,3.6
	c-0.1,2.5-0.4,5.3-1,7.8c-0.3,1.3-0.6,2.5-1,3.7c-1.2,3.7-2.7,7.3-4.4,10.7c-0.8,1.7-1.7,3.4-2.7,5c-1,1.6-2,3.2-3.1,4.8
	c-1.1,1.6-2.2,3.1-3.4,4.5c-1.2,1.5-2.4,2.9-3.7,4.3c-1.3,1.4-2.7,2.8-4.1,4.1c-1.4,1.3-2.9,2.6-4.4,3.8c-0.7,0.5-1.4,0.9-2.2,1.3
	c-0.7,0.3-1.4,0.7-2,1.1c-1.6,1.1-3.2,2.2-4.9,3.1s-3.4,1.9-5.1,2.7c-1.7,0.8-3.4,1.6-5.2,2.3c-1.8,0.7-3.5,1.4-5.3,1.9h0
	c-1.8,0.6-3.6,1.1-5.4,1.5h0c-1.8,0.4-3.6,0.8-5.5,1.1c-1.8,0.3-3.7,0.6-5.5,0.7h0c-1.8,0.2-3.7,0.3-5.6,0.3h0
	c-3.7,0.1-7.4-0.1-11.1-0.5c-1.8-0.2-3.7-0.5-5.5-0.9c-3.7-0.7-7.3-1.7-10.9-3c0,0,0,0,0,0h0c0,0,0,0,0,0c-1.8-0.6-3.5-1.3-5.3-2.1
	l0,0c-1.8-0.8-3.5-1.6-5.2-2.5l0,0c-1.7-0.9-3.4-1.9-5-2.9c0,0,0,0,0,0h0c-1.3-0.8-2.8-1.8-4.3-2.8c-1.5-1-3-2.1-4.5-3.2
	c-2.3-1.7-4.5-3.6-6.4-5.4c-0.6-0.6-1.2-1.3-1.8-1.9c-2.4-2.7-4.6-5.4-6.6-8.3c-2-2.9-3.8-5.9-5.4-9c-3.2-6.2-5.5-12.9-7-20
	c-0.1-0.6-0.2-1.1-0.3-1.6c0-0.2,0-0.3,0-0.5c0-0.3,0-0.6-0.1-0.9c0-0.7,0-1.3,0-2c0-0.1,0-0.2,0-0.3c0.1-0.7,0.2-1.4,0.3-2.1
	c0-0.2,0.1-0.3,0.1-0.5c0.1-0.6,0.3-1.1,0.5-1.6c0-0.1,0.1-0.2,0.1-0.4c0.2-0.6,0.5-1.2,0.8-1.8c0.1-0.1,0.2-0.3,0.2-0.4
	c0.3-0.5,0.5-0.9,0.9-1.3c0.1-0.1,0.2-0.2,0.3-0.3c0.4-0.5,0.8-0.9,1.2-1.3c0.1-0.1,0.2-0.2,0.3-0.2c0.4-0.3,0.8-0.6,1.2-0.9
	c0.2-0.1,0.3-0.2,0.5-0.3c0.1-0.1,0.2-0.1,0.3-0.2c0.3-0.2,0.6-0.3,0.9-0.4c0.1,0,0.1-0.1,0.2-0.1c0.4-0.2,0.8-0.3,1.1-0.4
	c0.1,0,0.2-0.1,0.3-0.1c0.3-0.1,0.6-0.1,0.9-0.2c0.1,0,0.2,0,0.4,0C221.5,109.1,221.9,109.1,222.3,109.1L222.3,109.1z M302.2,110.7
	C302.2,110.7,302.1,110.8,302.2,110.7c-3.4,16.5-24.7,16.9-28.2,0.6c0-0.1-0.1-0.1-0.2-0.1c-0.1,0-0.1,0.1-0.1,0.2
	c-0.1,19.9,29.4,19.3,28.6-0.6C302.3,110.8,302.3,110.7,302.2,110.7C302.2,110.7,302.2,110.7,302.2,110.7L302.2,110.7z M234.8,200.2
	c0,0,0.1,0,0.2,0.1c2,1.2,3.9,2.2,5.9,3.3c2,1,4,2,6.1,2.8c2.1,0.9,4.1,1.7,6.2,2.4c2.1,0.7,4.2,1.4,6.3,2c2.1,0.6,4.3,1.1,6.4,1.6
	s4.3,0.9,6.5,1.2c2.2,0.3,4.4,0.6,6.5,0.8c2.2,0.2,4.4,0.3,6.6,0.4c2.2,0,4.4,0,6.6-0.1c2.2-0.1,4.4-0.2,6.6-0.5
	c2.2-0.2,4.4-0.5,6.5-0.9c2.2-0.4,4.3-0.8,6.5-1.3c2.1-0.5,4.3-1.1,6.4-1.7c2.1-0.6,4.2-1.3,6.3-2.1c2.1-0.8,4.2-1.6,6.2-2.5
	c2-0.9,4.1-1.9,6.1-2.9c0.2-0.1,0.3-0.1,0.4-0.1c0.1,0.1,0.1,0.1,0,0.2c-2,1.1-4.1,2.2-6.2,3.1c-2.1,1-4.2,1.9-6.3,2.7
	c-2.1,0.8-4.2,1.6-6.4,2.3c-2.1,0.7-4.3,1.3-6.4,1.8c-2.2,0.5-4.3,1-6.5,1.4c-2.2,0.4-4.4,0.7-6.6,0.9c-2.2,0.2-4.4,0.4-6.6,0.5
	c-2.2,0.1-4.4,0.1-6.6,0.1c-2.2-0.1-4.4-0.2-6.6-0.4c-2.2-0.2-4.4-0.5-6.6-0.8c-2.2-0.3-4.3-0.8-6.5-1.2c-2.2-0.5-4.3-1-6.4-1.7
	c-2.1-0.6-4.3-1.3-6.4-2.1c-2.1-0.8-4.2-1.6-6.3-2.5c-2.1-0.9-4.1-1.9-6.1-3c-2-1.1-4-2.2-6-3.4c0,0-0.1,0-0.1-0.1
	C234.7,200.3,234.7,200.2,234.8,200.2C234.8,200.2,234.8,200.2,234.8,200.2L234.8,200.2z"/>
</svg>
